Benzinova-C1.ufo
<glyph name="exclam" format="1">
  <advance width="160.0"/>
  <unicode hex="0021"/>
  <outline>
    <contour>
      <point x="80" y="1200" type="curve" smooth="yes"/>
      <point x="72" y="1200"/>
      <point x="64" y="1192"/>
      <point x="64" y="1184" type="curve" smooth="yes"/>
      <point x="64" y="210" type="line" smooth="yes"/>
      <point x="64" y="202"/>
      <point x="72" y="194"/>
      <point x="80" y="194" type="curve" smooth="yes"/>
      <point x="88" y="194"/>
      <point x="96" y="202"/>
      <point x="96" y="210" type="curve" smooth="yes"/>
      <point x="96" y="1184" type="line" smooth="yes"/>
      <point x="96" y="1192"/>
      <point x="88" y="1200"/>
    </contour>
    <contour>
      <point x="80" y="-4" type="curve" smooth="yes"/>
      <point x="93" y="-4"/>
      <point x="104" y="7"/>
      <point x="104" y="20" type="curve" smooth="yes"/>
      <point x="104" y="33"/>
      <point x="93" y="44"/>
      <point x="80" y="44" type="curve" smooth="yes"/>
      <point x="67" y="44"/>
      <point x="56" y="33"/>
      <point x="56" y="20" type="curve" smooth="yes"/>
      <point x="56" y="7"/>
      <point x="67" y="-4"/>
    </contour>
  </outline>
</glyph>
<glyph name="percent" format="1">
  <advance width="616.0"/>
  <unicode hex="0025"/>
  <outline>
    <contour>
      <point x="238" y="530" type="curve" smooth="yes"/>
      <point x="324" y="530"/>
      <point x="395" y="601"/>
      <point x="395" y="687" type="curve" smooth="yes"/>
      <point x="395" y="774"/>
      <point x="324" y="844"/>
      <point x="238" y="844" type="curve" smooth="yes"/>
      <point x="151" y="844"/>
      <point x="81" y="774"/>
      <point x="81" y="687" type="curve" smooth="yes"/>
      <point x="81" y="601"/>
      <point x="151" y="530"/>
    </contour>
    <contour>
      <point x="238" y="562" type="curve" smooth="yes"/>
      <point x="169" y="562"/>
      <point x="113" y="619"/>
      <point x="113" y="687" type="curve" smooth="yes"/>
      <point x="113" y="756"/>
      <point x="169" y="812"/>
      <point x="238" y="812" type="curve" smooth="yes"/>
      <point x="306" y="812"/>
      <point x="363" y="756"/>
      <point x="363" y="687" type="curve" smooth="yes"/>
      <point x="363" y="619"/>
      <point x="306" y="562"/>
    </contour>
    <contour>
      <point x="756" y="830" type="line"/>
      <point x="762" y="836"/>
      <point x="760" y="847"/>
      <point x="753" y="852" type="curve" smooth="yes"/>
      <point x="747" y="858"/>
      <point x="736" y="856"/>
      <point x="731" y="849" type="curve" smooth="yes"/>
      <point x="84" y="26" type="line" smooth="yes"/>
      <point x="78" y="19"/>
      <point x="79" y="8"/>
      <point x="86" y="4" type="curve" smooth="yes"/>
      <point x="93" y="-2"/>
      <point x="104" y="-1"/>
      <point x="108" y="6" type="curve" smooth="yes"/>
    </contour>
    <contour>
      <point x="602" y="-5" type="curve" smooth="yes"/>
      <point x="689" y="-5"/>
      <point x="760" y="66"/>
      <point x="760" y="152" type="curve" smooth="yes"/>
      <point x="760" y="239"/>
      <point x="689" y="309"/>
      <point x="602" y="309" type="curve" smooth="yes"/>
      <point x="515" y="309"/>
      <point x="445" y="239"/>
      <point x="445" y="152" type="curve" smooth="yes"/>
      <point x="445" y="66"/>
      <point x="515" y="-5"/>
    </contour>
    <contour>
      <point x="602" y="27" type="curve" smooth="yes"/>
      <point x="533" y="27"/>
      <point x="477" y="84"/>
      <point x="477" y="152" type="curve" smooth="yes"/>
      <point x="477" y="221"/>
      <point x="533" y="277"/>
      <point x="602" y="277" type="curve" smooth="yes"/>
      <point x="671" y="277"/>
      <point x="728" y="221"/>
      <point x="728" y="152" type="curve" smooth="yes"/>
      <point x="728" y="84"/>
      <point x="671" y="27"/>
    </contour>
  </outline>
</glyph>
<glyph name="plus" format="1">
  <advance width="839"/>
  <unicode hex="002B"/>
  <outline>
    <contour>
      <point x="403" y="189" type="line"/>
      <point x="403" y="180"/>
      <point x="410" y="173"/>
      <point x="419" y="173" type="curve" smooth="yes"/>
      <point x="428" y="173"/>
      <point x="435" y="180"/>
      <point x="435" y="189" type="curve" smooth="yes"/>
      <point x="435" y="663" type="line" smooth="yes"/>
      <point x="435" y="672"/>
      <point x="428" y="679"/>
      <point x="419" y="679" type="curve" smooth="yes"/>
      <point x="410" y="679"/>
      <point x="403" y="672"/>
      <point x="403" y="663" type="curve" smooth="yes"/>
    </contour>
    <contour>
      <point x="656" y="410" type="line"/>
      <point x="665" y="410"/>
      <point x="672" y="417"/>
      <point x="672" y="426" type="curve" smooth="yes"/>
      <point x="672" y="435"/>
      <point x="665" y="442"/>
      <point x="656" y="442" type="curve" smooth="yes"/>
      <point x="183" y="442" type="line" smooth="yes"/>
      <point x="174" y="442"/>
      <point x="167" y="435"/>
      <point x="167" y="426" type="curve" smooth="yes"/>
      <point x="167" y="417"/>
      <point x="174" y="410"/>
      <point x="183" y="410" type="curve" smooth="yes"/>
    </contour>
  </outline>
</glyph>
<glyph name="period" format="1">
  <advance width="200.0"/>
  <unicode hex="002E"/>
  <outline>
    <contour>
      <point x="100" y="-4" type="curve" smooth="yes"/>
      <point x="113" y="-4"/>
      <point x="124" y="7"/>
      <point x="124" y="20" type="curve" smooth="yes"/>
      <point x="124" y="33"/>
      <point x="113" y="44"/>
      <point x="100" y="44" type="curve" smooth="yes"/>
      <point x="87" y="44"/>
      <point x="76" y="33"/>
      <point x="76" y="20" type="curve" smooth="yes"/>
      <point x="76" y="7"/>
      <point x="87" y="-4"/>
    </contour>
  </outline>
</glyph>
<glyph name="zero" format="1">
  <advance width="840.0"/>
  <unicode hex="0030"/>
  <outline>
    <contour>
      <point x="760" y="881" type="line"/>
      <point x="760" y="1069"/>
      <point x="607" y="1221"/>
      <point x="420" y="1221" type="curve" smooth="yes"/>
      <point x="233" y="1221"/>
      <point x="80" y="1069"/>
      <point x="80" y="881" type="curve" smooth="yes"/>
      <point x="80" y="317" type="line" smooth="yes"/>
      <point x="80" y="130"/>
      <point x="233" y="-21"/>
      <point x="420" y="-21" type="curve" smooth="yes"/>
      <point x="607" y="-21"/>
      <point x="760" y="130"/>
      <point x="760" y="317" type="curve" smooth="yes"/>
    </contour>
    <contour>
      <point x="728" y="881" type="curve" smooth="yes"/>
      <point x="728" y="317" type="line" smooth="yes"/>
      <point x="728" y="148"/>
      <point x="589" y="11"/>
      <point x="420" y="11" type="curve" smooth="yes"/>
      <point x="251" y="11"/>
      <point x="112" y="148"/>
      <point x="112" y="317" type="curve" smooth="yes"/>
      <point x="112" y="881" type="line" smooth="yes"/>
      <point x="112" y="1051"/>
      <point x="251" y="1189"/>
      <point x="420" y="1189" type="curve" smooth="yes"/>
      <point x="589" y="1189"/>
      <point x="728" y="1051"/>
    </contour>
    <contour>
      <point x="90" y="349" type="line"/>
      <point x="83" y="343"/>
      <point x="82" y="333"/>
      <point x="87" y="327" type="curve" smooth="yes"/>
      <point x="92" y="321"/>
      <point x="102" y="320"/>
      <point x="108" y="325" type="curve" smooth="yes"/>
      <point x="750" y="848" type="line" smooth="yes"/>
      <point x="757" y="854"/>
      <point x="758" y="864"/>
      <point x="753" y="870" type="curve" smooth="yes"/>
      <point x="748" y="876"/>
      <point x="738" y="877"/>
      <point x="732" y="872" type="curve" smooth="yes"/>
    </contour>
  </outline>
</glyph>
<glyph name="three" format="1">
  <advance width="840.0"/>
  <unicode hex="0033"/>
  <outline>
    <contour>
      <point x="505" y="665" type="curve" smooth="yes"/>
      <point x="497" y="664"/>
      <point x="491" y="655"/>
      <point x="492" y="647" type="curve" smooth="yes"/>
      <point x="493" y="638"/>
      <point x="502" y="632"/>
      <point x="510" y="633" type="curve" smooth="yes"/>
      <point x="643" y="654"/>
      <point x="747" y="770"/>
      <point x="747" y="909" type="curve" smooth="yes"/>
      <point x="747" y="942" type="line" smooth="yes"/>
      <point x="747" y="1096"/>
      <point x="621" y="1221"/>
      <point x="468" y="1221" type="curve" smooth="yes"/>
      <point x="372" y="1221" type="line" smooth="yes"/>
      <point x="218" y="1221"/>
      <point x="93" y="1096"/>
      <point x="93" y="942" type="curve" smooth="yes"/>
      <point x="93" y="933"/>
      <point x="100" y="926"/>
      <point x="109" y="926" type="curve" smooth="yes"/>
      <point x="118" y="926"/>
      <point x="125" y="933"/>
      <point x="125" y="942" type="curve" smooth="yes"/>
      <point x="125" y="1078"/>
      <point x="236" y="1189"/>
      <point x="372" y="1189" type="curve" smooth="yes"/>
      <point x="468" y="1189" type="line" smooth="yes"/>
      <point x="603" y="1189"/>
      <point x="715" y="1078"/>
      <point x="715" y="942" type="curve" smooth="yes"/>
      <point x="715" y="909" type="line" smooth="yes"/>
      <point x="715" y="786"/>
      <point x="623" y="684"/>
    </contour>
    <contour>
      <point x="112" y="271" type="curve" smooth="yes"/>
      <point x="112" y="280"/>
      <point x="105" y="287"/>
      <point x="96" y="287" type="curve" smooth="yes"/>
      <point x="87" y="287"/>
      <point x="80" y="280"/>
      <point x="80" y="271" type="curve" smooth="yes"/>
      <point x="80" y="110"/>
      <point x="211" y="-21"/>
      <point x="372" y="-21" type="curve" smooth="yes"/>
      <point x="468" y="-21" type="line" smooth="yes"/>
      <point x="629" y="-21"/>
      <point x="760" y="110"/>
      <point x="760" y="271" type="curve" smooth="yes"/>
      <point x="760" y="369" type="line" smooth="yes"/>
      <point x="760" y="522"/>
      <point x="642" y="648"/>
      <point x="493" y="661" type="curve" smooth="yes"/>
      <point x="484" y="661"/>
      <point x="476" y="654"/>
      <point x="476" y="646" type="curve" smooth="yes"/>
      <point x="475" y="637"/>
      <point x="482" y="629"/>
      <point x="490" y="629" type="curve" smooth="yes"/>
      <point x="623" y="617"/>
      <point x="728" y="505"/>
      <point x="728" y="369" type="curve" smooth="yes"/>
      <point x="728" y="271" type="line" smooth="yes"/>
      <point x="728" y="128"/>
      <point x="611" y="11"/>
      <point x="468" y="11" type="curve" smooth="yes"/>
      <point x="372" y="11" type="line" smooth="yes"/>
      <point x="229" y="11"/>
      <point x="112" y="128"/>
    </contour>
  </outline>
</glyph>
<glyph name="four" format="1">
  <advance width="840.0"/>
  <unicode hex="0034"/>
  <outline>
    <contour>
      <point x="734" y="268" type="line"/>
      <point x="743" y="268"/>
      <point x="750" y="275"/>
      <point x="750" y="284" type="curve" smooth="yes"/>
      <point x="750" y="293"/>
      <point x="743" y="300"/>
      <point x="734" y="300" type="curve" smooth="yes"/>
      <point x="96" y="300" type="line"/>
      <point x="111" y="279" type="line"/>
      <point x="435" y="1179" type="line"/>
      <point x="420" y="1168" type="line"/>
      <point x="744" y="1168" type="line"/>
      <point x="728" y="1184" type="line"/>
      <point x="728" y="16" type="line" smooth="yes"/>
      <point x="728" y="7"/>
      <point x="735" y="0"/>
      <point x="744" y="0" type="curve" smooth="yes"/>
      <point x="753" y="0"/>
      <point x="760" y="7"/>
      <point x="760" y="16" type="curve" smooth="yes"/>
      <point x="760" y="1184" type="line" smooth="yes"/>
      <point x="760" y="1193"/>
      <point x="753" y="1200"/>
      <point x="744" y="1200" type="curve" smooth="yes"/>
      <point x="420" y="1200" type="line" smooth="yes"/>
      <point x="414" y="1200"/>
      <point x="407" y="1195"/>
      <point x="405" y="1189" type="curve" smooth="yes"/>
      <point x="81" y="289" type="line" smooth="yes"/>
      <point x="77" y="278"/>
      <point x="84" y="268"/>
      <point x="96" y="268" type="curve" smooth="yes"/>
    </contour>
  </outline>
</glyph>
<glyph name="equal" format="1">
  <advance width="840.0"/>
  <unicode hex="003D"/>
  <outline>
    <contour>
      <point x="657" y="286" type="line"/>
      <point x="666" y="286"/>
      <point x="673" y="293"/>
      <point x="673" y="302" type="curve" smooth="yes"/>
      <point x="673" y="311"/>
      <point x="666" y="318"/>
      <point x="657" y="318" type="curve" smooth="yes"/>
      <point x="183" y="318" type="line" smooth="yes"/>
      <point x="174" y="318"/>
      <point x="167" y="311"/>
      <point x="167" y="302" type="curve" smooth="yes"/>
      <point x="167" y="293"/>
      <point x="174" y="286"/>
      <point x="183" y="286" type="curve" smooth="yes"/>
    </contour>
    <contour>
      <point x="657" y="526" type="line"/>
      <point x="666" y="526"/>
      <point x="673" y="533"/>
      <point x="673" y="542" type="curve" smooth="yes"/>
      <point x="673" y="551"/>
      <point x="666" y="558"/>
      <point x="657" y="558" type="curve" smooth="yes"/>
      <point x="183" y="558" type="line" smooth="yes"/>
      <point x="174" y="558"/>
      <point x="167" y="551"/>
      <point x="167" y="542" type="curve" smooth="yes"/>
      <point x="167" y="533"/>
      <point x="174" y="526"/>
      <point x="183" y="526" type="curve" smooth="yes"/>
    </contour>
  </outline>
</glyph>
<glyph name="question" format="1">
  <advance width="934"/>
  <unicode hex="003F"/>
  <outline>
    <contour>
      <point x="467" y="-4" type="curve" smooth="yes"/>
      <point x="479" y="-4"/>
      <point x="491" y="8"/>
      <point x="491" y="20" type="curve" smooth="yes"/>
      <point x="491" y="32"/>
      <point x="479" y="44"/>
      <point x="467" y="44" type="curve" smooth="yes"/>
      <point x="455" y="44"/>
      <point x="443" y="32"/>
      <point x="443" y="20" type="curve" smooth="yes"/>
      <point x="443" y="8"/>
      <point x="455" y="-4"/>
    </contour>
    <contour>
      <point x="451" y="214" type="line"/>
      <point x="451" y="205"/>
      <point x="458" y="198"/>
      <point x="467" y="198" type="curve" smooth="yes"/>
      <point x="476" y="198"/>
      <point x="483" y="205"/>
      <point x="483" y="214" type="curve" smooth="yes"/>
      <point x="483" y="403" type="line"/>
      <point x="467" y="387" type="line"/>
      <point x="680" y="387"/>
      <point x="854" y="561"/>
      <point x="854" y="774" type="curve" smooth="yes"/>
      <point x="854" y="845" type="line" smooth="yes"/>
      <point x="854" y="1058"/>
      <point x="680" y="1232"/>
      <point x="467" y="1232" type="curve" smooth="yes"/>
      <point x="254" y="1232"/>
      <point x="80" y="1058"/>
      <point x="80" y="845" type="curve" smooth="yes"/>
      <point x="80" y="836"/>
      <point x="87" y="829"/>
      <point x="96" y="829" type="curve" smooth="yes"/>
      <point x="105" y="829"/>
      <point x="112" y="836"/>
      <point x="112" y="845" type="curve" smooth="yes"/>
      <point x="112" y="1040"/>
      <point x="272" y="1200"/>
      <point x="467" y="1200" type="curve" smooth="yes"/>
      <point x="662" y="1200"/>
      <point x="822" y="1040"/>
      <point x="822" y="845" type="curve" smooth="yes"/>
      <point x="822" y="774" type="line" smooth="yes"/>
      <point x="822" y="579"/>
      <point x="662" y="419"/>
      <point x="467" y="419" type="curve" smooth="yes"/>
      <point x="458" y="419"/>
      <point x="451" y="412"/>
      <point x="451" y="403" type="curve" smooth="yes"/>
    </contour>
  </outline>
</glyph>
<glyph name="A" format="1">
  <advance width="1067"/>
  <unicode hex="0041"/>
  <outline>
    <contour>
      <point x="156" y="300" type="line"/>
      <point x="147" y="300"/>
      <point x="140" y="293"/>
      <point x="140" y="284" type="curve" smooth="yes"/>
      <point x="140" y="275"/>
      <point x="147" y="268"/>
      <point x="156" y="268" type="curve" smooth="yes"/>
      <point x="909" y="268" type="line" smooth="yes"/>
      <point x="918" y="268"/>
      <point x="925" y="275"/>
      <point x="925" y="284" type="curve" smooth="yes"/>
      <point x="925" y="293"/>
      <point x="918" y="300"/>
      <point x="909" y="300" type="curve" smooth="yes"/>
    </contour>
    <contour>
      <point x="964" y="12" type="line"/>
      <point x="966" y="4"/>
      <point x="975" y="-2"/>
      <point x="983" y="1" type="curve" smooth="yes"/>
      <point x="992" y="3"/>
      <point x="997" y="11"/>
      <point x="995" y="20" type="curve" smooth="yes"/>
      <point x="710" y="1204" type="line" smooth="yes"/>
      <point x="708" y="1211"/>
      <point x="701" y="1216"/>
      <point x="694" y="1216" type="curve" smooth="yes"/>
      <point x="373" y="1216" type="line" smooth="yes"/>
      <point x="366" y="1216"/>
      <point x="359" y="1211"/>
      <point x="358" y="1204" type="curve" smooth="yes"/>
      <point x="73" y="20" type="line" smooth="yes"/>
      <point x="70" y="11"/>
      <point x="76" y="3"/>
      <point x="84" y="1" type="curve" smooth="yes"/>
      <point x="93" y="-2"/>
      <point x="101" y="4"/>
      <point x="103" y="12" type="curve" smooth="yes"/>
      <point x="388" y="1196" type="line"/>
      <point x="373" y="1184" type="line"/>
      <point x="694" y="1184" type="line"/>
      <point x="679" y="1196" type="line"/>
    </contour>
  </outline>
</glyph>
<glyph name="C" format="1">
  <advance width="1101"/>
  <unicode hex="0043"/>
  <outline>
    <contour>
      <point x="551" y="-32" type="curve" smooth="yes"/>
      <point x="708" y="-32"/>
      <point x="845" y="51"/>
      <point x="917" y="171" type="curve" smooth="yes"/>
      <point x="921" y="179"/>
      <point x="918" y="188"/>
      <point x="911" y="192" type="curve" smooth="yes"/>
      <point x="904" y="196"/>
      <point x="895" y="193"/>
      <point x="891" y="186" type="curve" smooth="yes"/>
      <point x="823" y="76"/>
      <point x="695" y="0"/>
      <point x="551" y="0" type="curve" smooth="yes"/>
      <point x="309" y="0"/>
      <point x="112" y="197"/>
      <point x="112" y="439" type="curve" smooth="yes"/>
      <point x="112" y="751" type="line" smooth="yes"/>
      <point x="112" y="992"/>
      <point x="309" y="1189"/>
      <point x="551" y="1189" type="curve" smooth="yes"/>
      <point x="695" y="1189"/>
      <point x="822" y="1114"/>
      <point x="890" y="1004" type="curve" smooth="yes"/>
      <point x="894" y="997"/>
      <point x="903" y="994"/>
      <point x="911" y="998" type="curve" smooth="yes"/>
      <point x="917" y="1002"/>
      <point x="921" y="1011"/>
      <point x="917" y="1019" type="curve" smooth="yes"/>
      <point x="845" y="1139"/>
      <point x="707" y="1221"/>
      <point x="551" y="1221" type="curve" smooth="yes"/>
      <point x="291" y="1221"/>
      <point x="80" y="1010"/>
      <point x="80" y="751" type="curve" smooth="yes"/>
      <point x="80" y="439" type="line" smooth="yes"/>
      <point x="80" y="179"/>
      <point x="291" y="-32"/>
    </contour>
  </outline>
</glyph>
<glyph name="D" format="1">
  <advance width="1102"/>
  <unicode hex="0044"/>
  <outline>
    <contour>
      <point x="1022" y="730" type="line"/>
      <point x="1022" y="989"/>
      <point x="810" y="1200"/>
      <point x="551" y="1200" type="curve" smooth="yes"/>
      <point x="97" y="1200" type="line" smooth="yes"/>
      <point x="88" y="1200"/>
      <point x="81" y="1193"/>
      <point x="81" y="1184" type="curve" smooth="yes"/>
      <point x="80" y="5" type="line" smooth="yes"/>
      <point x="80" y="-4"/>
      <point x="87" y="-11"/>
      <point x="96" y="-11" type="curve" smooth="yes"/>
      <point x="551" y="-11" type="line" smooth="yes"/>
      <point x="810" y="-11"/>
      <point x="1022" y="201"/>
      <point x="1022" y="460" type="curve" smooth="yes"/>
    </contour>
    <contour>
      <point x="990" y="730" type="curve" smooth="yes"/>
      <point x="990" y="460" type="line" smooth="yes"/>
      <point x="990" y="219"/>
      <point x="792" y="21"/>
      <point x="551" y="21" type="curve" smooth="yes"/>
      <point x="96" y="21" type="line"/>
      <point x="112" y="5" type="line"/>
      <point x="113" y="1184" type="line"/>
      <point x="97" y="1168" type="line"/>
      <point x="551" y="1168" type="line" smooth="yes"/>
      <point x="792" y="1168"/>
      <point x="990" y="971"/>
    </contour>
  </outline>
</glyph>
<glyph name="E" format="1">
  <advance width="1106"/>
  <unicode hex="0045"/>
  <outline>
    <contour>
      <point x="1010" y="0" type="line"/>
      <point x="1019" y="0"/>
      <point x="1026" y="7"/>
      <point x="1026" y="16" type="curve" smooth="yes"/>
      <point x="1026" y="25"/>
      <point x="1019" y="32"/>
      <point x="1010" y="32" type="curve" smooth="yes"/>
      <point x="96" y="32" type="line"/>
      <point x="112" y="16" type="line"/>
      <point x="112" y="1184" type="line"/>
      <point x="96" y="1168" type="line"/>
      <point x="1010" y="1168" type="line" smooth="yes"/>
      <point x="1019" y="1168"/>
      <point x="1026" y="1175"/>
      <point x="1026" y="1184" type="curve" smooth="yes"/>
      <point x="1026" y="1193"/>
      <point x="1019" y="1200"/>
      <point x="1010" y="1200" type="curve" smooth="yes"/>
      <point x="96" y="1200" type="line" smooth="yes"/>
      <point x="87" y="1200"/>
      <point x="80" y="1193"/>
      <point x="80" y="1184" type="curve" smooth="yes"/>
      <point x="80" y="16" type="line" smooth="yes"/>
      <point x="80" y="7"/>
      <point x="87" y="0"/>
      <point x="96" y="0" type="curve" smooth="yes"/>
    </contour>
    <contour>
      <point x="98" y="563" type="line"/>
      <point x="89" y="563"/>
      <point x="82" y="556"/>
      <point x="82" y="547" type="curve" smooth="yes"/>
      <point x="82" y="538"/>
      <point x="89" y="531"/>
      <point x="98" y="531" type="curve" smooth="yes"/>
      <point x="553" y="531" type="line" smooth="yes"/>
      <point x="562" y="531"/>
      <point x="569" y="538"/>
      <point x="569" y="547" type="curve" smooth="yes"/>
      <point x="569" y="556"/>
      <point x="562" y="563"/>
      <point x="553" y="563" type="curve" smooth="yes"/>
    </contour>
  </outline>
</glyph>
<glyph name="G" format="1">
  <advance width="1101"/>
  <unicode hex="0047"/>
  <outline>
    <contour>
      <point x="674" y="528" type="line"/>
      <point x="665" y="528"/>
      <point x="658" y="521"/>
      <point x="658" y="512" type="curve" smooth="yes"/>
      <point x="658" y="503"/>
      <point x="665" y="496"/>
      <point x="674" y="496" type="curve" smooth="yes"/>
      <point x="1005" y="496" type="line"/>
      <point x="989" y="512" type="line"/>
      <point x="989" y="439" type="line" smooth="yes"/>
      <point x="989" y="197"/>
      <point x="793" y="0"/>
      <point x="551" y="0" type="curve" smooth="yes"/>
      <point x="309" y="0"/>
      <point x="112" y="197"/>
      <point x="112" y="439" type="curve" smooth="yes"/>
      <point x="112" y="751" type="line" smooth="yes"/>
      <point x="112" y="992"/>
      <point x="309" y="1189"/>
      <point x="551" y="1189" type="curve" smooth="yes"/>
      <point x="694" y="1189"/>
      <point x="822" y="1114"/>
      <point x="890" y="1004" type="curve" smooth="yes"/>
      <point x="894" y="997"/>
      <point x="903" y="994"/>
      <point x="910" y="998" type="curve" smooth="yes"/>
      <point x="917" y="1002"/>
      <point x="920" y="1011"/>
      <point x="916" y="1019" type="curve" smooth="yes"/>
      <point x="844" y="1139"/>
      <point x="707" y="1221"/>
      <point x="551" y="1221" type="curve" smooth="yes"/>
      <point x="291" y="1221"/>
      <point x="80" y="1010"/>
      <point x="80" y="751" type="curve" smooth="yes"/>
      <point x="80" y="439" type="line" smooth="yes"/>
      <point x="80" y="179"/>
      <point x="291" y="-32"/>
      <point x="551" y="-32" type="curve" smooth="yes"/>
      <point x="811" y="-32"/>
      <point x="1021" y="179"/>
      <point x="1021" y="439" type="curve" smooth="yes"/>
      <point x="1021" y="512" type="line" smooth="yes"/>
      <point x="1021" y="521"/>
      <point x="1014" y="528"/>
      <point x="1005" y="528" type="curve" smooth="yes"/>
    </contour>
  </outline>
</glyph>
<glyph name="I" format="1">
  <advance width="365"/>
  <unicode hex="0049"/>
  <outline>
    <contour>
      <point x="183" y="0" type="curve" smooth="yes"/>
      <point x="191" y="0"/>
      <point x="199" y="8"/>
      <point x="199" y="16" type="curve" smooth="yes"/>
      <point x="199" y="1184" type="line" smooth="yes"/>
      <point x="199" y="1192"/>
      <point x="191" y="1200"/>
      <point x="183" y="1200" type="curve" smooth="yes"/>
      <point x="175" y="1200"/>
      <point x="167" y="1192"/>
      <point x="167" y="1184" type="curve" smooth="yes"/>
      <point x="167" y="16" type="line" smooth="yes"/>
      <point x="167" y="8"/>
      <point x="175" y="0"/>
    </contour>
  </outline>
</glyph>
<glyph name="J" format="1">
  <advance width="1102"/>
  <unicode hex="004A"/>
  <outline>
    <contour>
      <point x="112" y="439" type="curve" smooth="yes"/>
      <point x="112" y="448"/>
      <point x="105" y="455"/>
      <point x="96" y="455" type="curve" smooth="yes"/>
      <point x="87" y="455"/>
      <point x="80" y="448"/>
      <point x="80" y="439" type="curve" smooth="yes"/>
      <point x="80" y="179"/>
      <point x="291" y="-32"/>
      <point x="551" y="-32" type="curve" smooth="yes"/>
      <point x="810" y="-32"/>
      <point x="1022" y="179"/>
      <point x="1022" y="439" type="curve" smooth="yes"/>
      <point x="1022" y="1184" type="line" smooth="yes"/>
      <point x="1022" y="1193"/>
      <point x="1015" y="1200"/>
      <point x="1006" y="1200" type="curve" smooth="yes"/>
      <point x="550" y="1200" type="line" smooth="yes"/>
      <point x="541" y="1200"/>
      <point x="534" y="1193"/>
      <point x="534" y="1184" type="curve" smooth="yes"/>
      <point x="534" y="1175"/>
      <point x="541" y="1168"/>
      <point x="550" y="1168" type="curve" smooth="yes"/>
      <point x="1006" y="1168" type="line"/>
      <point x="990" y="1184" type="line"/>
      <point x="990" y="439" type="line" smooth="yes"/>
      <point x="990" y="197"/>
      <point x="792" y="0"/>
      <point x="551" y="0" type="curve" smooth="yes"/>
      <point x="309" y="0"/>
      <point x="112" y="197"/>
    </contour>
  </outline>
</glyph>
<glyph name="K" format="1">
  <advance width="1122"/>
  <unicode hex="004B"/>
  <note>
  </note>
  <outline>
    <contour>
      <point x="80" y="16" type="line"/>
      <point x="80" y="7"/>
      <point x="87" y="0"/>
      <point x="96" y="0" type="curve" smooth="yes"/>
      <point x="105" y="0"/>
      <point x="112" y="7"/>
      <point x="112" y="16" type="curve" smooth="yes"/>
      <point x="112" y="1184" type="line" smooth="yes"/>
      <point x="112" y="1193"/>
      <point x="105" y="1200"/>
      <point x="96" y="1200" type="curve" smooth="yes"/>
      <point x="87" y="1200"/>
      <point x="80" y="1193"/>
      <point x="80" y="1184" type="curve" smooth="yes"/>
    </contour>
    <contour>
      <point x="1016" y="3" type="line"/>
      <point x="1022" y="-1"/>
      <point x="1033" y="-1"/>
      <point x="1038" y="6" type="curve" smooth="yes"/>
      <point x="1043" y="13"/>
      <point x="1042" y="23"/>
      <point x="1035" y="29" type="curve" smooth="yes"/>
      <point x="209" y="645" type="line" smooth="yes"/>
      <point x="203" y="650"/>
      <point x="193" y="649"/>
      <point x="187" y="642" type="curve" smooth="yes"/>
      <point x="182" y="636"/>
      <point x="183" y="625"/>
      <point x="190" y="620" type="curve" smooth="yes"/>
    </contour>
    <contour>
      <point x="1035" y="1171" type="line"/>
      <point x="1041" y="1176"/>
      <point x="1043" y="1186"/>
      <point x="1039" y="1193" type="curve" smooth="yes"/>
      <point x="1034" y="1200"/>
      <point x="1024" y="1202"/>
      <point x="1017" y="1197" type="curve" smooth="yes"/>
      <point x="89" y="595" type="line" smooth="yes"/>
      <point x="82" y="590"/>
      <point x="80" y="580"/>
      <point x="85" y="573" type="curve" smooth="yes"/>
      <point x="90" y="566"/>
      <point x="100" y="564"/>
      <point x="107" y="569" type="curve" smooth="yes"/>
    </contour>
  </outline>
</glyph>
<glyph name="M" format="1">
  <advance width="1101"/>
  <unicode hex="004D"/>
  <outline>
    <contour>
      <point x="80" y="16" type="line"/>
      <point x="80" y="7"/>
      <point x="87" y="0"/>
      <point x="96" y="0" type="curve" smooth="yes"/>
      <point x="105" y="0"/>
      <point x="112" y="7"/>
      <point x="112" y="16" type="curve" smooth="yes"/>
      <point x="112" y="1200" type="line"/>
      <point x="84" y="1191" type="line"/>
      <point x="538" y="624" type="line" smooth="yes"/>
      <point x="544" y="615"/>
      <point x="557" y="615"/>
      <point x="563" y="624" type="curve" smooth="yes"/>
      <point x="1017" y="1191" type="line"/>
      <point x="989" y="1200" type="line"/>
      <point x="989" y="16" type="line" smooth="yes"/>
      <point x="989" y="7"/>
      <point x="996" y="0"/>
      <point x="1005" y="0" type="curve" smooth="yes"/>
      <point x="1014" y="0"/>
      <point x="1021" y="7"/>
      <point x="1021" y="16" type="curve" smooth="yes"/>
      <point x="1021" y="1200" type="line" smooth="yes"/>
      <point x="1021" y="1217"/>
      <point x="1002" y="1222"/>
      <point x="993" y="1209" type="curve" smooth="yes"/>
      <point x="538" y="643" type="line"/>
      <point x="563" y="643" type="line"/>
      <point x="108" y="1209" type="line" smooth="yes"/>
      <point x="99" y="1222"/>
      <point x="80" y="1217"/>
      <point x="80" y="1200" type="curve" smooth="yes"/>
    </contour>
  </outline>
</glyph>
<glyph name="N" format="1">
  <advance width="1106"/>
  <unicode hex="004E"/>
  <outline>
    <contour>
      <point x="80" y="16" type="line"/>
      <point x="80" y="7"/>
      <point x="87" y="0"/>
      <point x="96" y="0" type="curve" smooth="yes"/>
      <point x="105" y="0"/>
      <point x="112" y="7"/>
      <point x="112" y="16" type="curve" smooth="yes"/>
      <point x="112" y="1184" type="line"/>
      <point x="84" y="1175" type="line"/>
      <point x="998" y="7" type="line" smooth="yes"/>
      <point x="1008" y="-6"/>
      <point x="1026" y="-1"/>
      <point x="1026" y="16" type="curve" smooth="yes"/>
      <point x="1026" y="1184" type="line" smooth="yes"/>
      <point x="1026" y="1193"/>
      <point x="1019" y="1200"/>
      <point x="1010" y="1200" type="curve" smooth="yes"/>
      <point x="1001" y="1200"/>
      <point x="994" y="1193"/>
      <point x="994" y="1184" type="curve" smooth="yes"/>
      <point x="994" y="16" type="line"/>
      <point x="1023" y="25" type="line"/>
      <point x="108" y="1193" type="line" smooth="yes"/>
      <point x="99" y="1206"/>
      <point x="80" y="1201"/>
      <point x="80" y="1184" type="curve" smooth="yes"/>
    </contour>
  </outline>
</glyph>
<glyph name="O" format="1">
  <advance width="1102"/>
  <unicode hex="004F"/>
  <outline>
    <contour>
      <point x="551" y="-32" type="curve" smooth="yes"/>
      <point x="810" y="-32"/>
      <point x="1022" y="179"/>
      <point x="1022" y="439" type="curve" smooth="yes"/>
      <point x="1022" y="751" type="line" smooth="yes"/>
      <point x="1022" y="1010"/>
      <point x="810" y="1221"/>
      <point x="551" y="1221" type="curve" smooth="yes"/>
      <point x="291" y="1221"/>
      <point x="80" y="1010"/>
      <point x="80" y="751" type="curve" smooth="yes"/>
      <point x="80" y="439" type="line" smooth="yes"/>
      <point x="80" y="179"/>
      <point x="291" y="-32"/>
    </contour>
    <contour>
      <point x="551" y="1189" type="curve" smooth="yes"/>
      <point x="792" y="1189"/>
      <point x="990" y="992"/>
      <point x="990" y="751" type="curve" smooth="yes"/>
      <point x="990" y="439" type="line" smooth="yes"/>
      <point x="990" y="197"/>
      <point x="792" y="0"/>
      <point x="551" y="0" type="curve" smooth="yes"/>
      <point x="309" y="0"/>
      <point x="112" y="197"/>
      <point x="112" y="439" type="curve" smooth="yes"/>
      <point x="112" y="751" type="line" smooth="yes"/>
      <point x="112" y="992"/>
      <point x="309" y="1189"/>
    </contour>
  </outline>
</glyph>
<glyph name="T" format="1">
  <advance width="1091"/>
  <unicode hex="0054"/>
  <outline>
    <contour>
      <point x="91" y="1200" type="line"/>
      <point x="82" y="1200"/>
      <point x="75" y="1193"/>
      <point x="75" y="1184" type="curve" smooth="yes"/>
      <point x="75" y="1175"/>
      <point x="82" y="1168"/>
      <point x="91" y="1168" type="curve" smooth="yes"/>
      <point x="1000" y="1168" type="line" smooth="yes"/>
      <point x="1009" y="1168"/>
      <point x="1016" y="1175"/>
      <point x="1016" y="1184" type="curve" smooth="yes"/>
      <point x="1016" y="1193"/>
      <point x="1009" y="1200"/>
      <point x="1000" y="1200" type="curve" smooth="yes"/>
    </contour>
    <contour>
      <point x="561" y="1174" type="line"/>
      <point x="561" y="1183"/>
      <point x="554" y="1190"/>
      <point x="545" y="1190" type="curve" smooth="yes"/>
      <point x="536" y="1190"/>
      <point x="529" y="1183"/>
      <point x="529" y="1174" type="curve" smooth="yes"/>
      <point x="529" y="16" type="line" smooth="yes"/>
      <point x="529" y="7"/>
      <point x="536" y="0"/>
      <point x="545" y="0" type="curve" smooth="yes"/>
      <point x="554" y="0"/>
      <point x="561" y="7"/>
      <point x="561" y="16" type="curve" smooth="yes"/>
    </contour>
  </outline>
</glyph>
<glyph name="V" format="1">
  <advance width="1091"/>
  <unicode hex="0056"/>
  <outline>
    <contour>
      <point x="105" y="1190" type="line"/>
      <point x="103" y="1198"/>
      <point x="93" y="1202"/>
      <point x="85" y="1199" type="curve" smooth="yes"/>
      <point x="77" y="1196"/>
      <point x="73" y="1187"/>
      <point x="76" y="1178" type="curve" smooth="yes"/>
      <point x="530" y="-23" type="line" smooth="yes"/>
      <point x="536" y="-38"/>
      <point x="554" y="-38"/>
      <point x="560" y="-23" type="curve" smooth="yes"/>
      <point x="1014" y="1178" type="line" smooth="yes"/>
      <point x="1017" y="1187"/>
      <point x="1013" y="1196"/>
      <point x="1005" y="1199" type="curve" smooth="yes"/>
      <point x="997" y="1202"/>
      <point x="988" y="1198"/>
      <point x="985" y="1190" type="curve" smooth="yes"/>
      <point x="530" y="-12" type="line"/>
      <point x="560" y="-12" type="line"/>
    </contour>
  </outline>
</glyph>
<glyph name="X" format="1">
  <advance width="1091"/>
  <unicode hex="0058"/>
  <outline>
    <contour>
      <point x="84" y="25" type="line"/>
      <point x="79" y="18"/>
      <point x="81" y="9"/>
      <point x="88" y="4" type="curve" smooth="yes"/>
      <point x="94" y="-1"/>
      <point x="104" y="0"/>
      <point x="109" y="7" type="curve" smooth="yes"/>
      <point x="1007" y="1175" type="line" smooth="yes"/>
      <point x="1012" y="1182"/>
      <point x="1011" y="1191"/>
      <point x="1004" y="1196" type="curve" smooth="yes"/>
      <point x="997" y="1201"/>
      <point x="988" y="1200"/>
      <point x="983" y="1193" type="curve" smooth="yes"/>
    </contour>
    <contour>
      <point x="983" y="7" type="line"/>
      <point x="988" y="0"/>
      <point x="997" y="-1"/>
      <point x="1004" y="4" type="curve" smooth="yes"/>
      <point x="1011" y="9"/>
      <point x="1012" y="18"/>
      <point x="1007" y="25" type="curve" smooth="yes"/>
      <point x="109" y="1193" type="line" smooth="yes"/>
      <point x="104" y="1200"/>
      <point x="94" y="1201"/>
      <point x="88" y="1196" type="curve" smooth="yes"/>
      <point x="81" y="1191"/>
      <point x="79" y="1182"/>
      <point x="84" y="1175" type="curve" smooth="yes"/>
    </contour>
  </outline>
</glyph>
<glyph name="bracketleft" format="1">
  <advance width="444.0"/>
  <unicode hex="005B"/>
  <outline>
    <contour>
      <point x="368" y="1200" type="line"/>
      <point x="377" y="1200"/>
      <point x="384" y="1207"/>
      <point x="384" y="1216" type="curve" smooth="yes"/>
      <point x="384" y="1225"/>
      <point x="377" y="1232"/>
      <point x="368" y="1232" type="curve" smooth="yes"/>
      <point x="123" y="1232" type="line" smooth="yes"/>
      <point x="114" y="1232"/>
      <point x="107" y="1225"/>
      <point x="107" y="1216" type="curve" smooth="yes"/>
      <point x="107" y="-16" type="line" smooth="yes"/>
      <point x="107" y="-25"/>
      <point x="114" y="-32"/>
      <point x="123" y="-32" type="curve" smooth="yes"/>
      <point x="368" y="-32" type="line" smooth="yes"/>
      <point x="377" y="-32"/>
      <point x="384" y="-25"/>
      <point x="384" y="-16" type="curve" smooth="yes"/>
      <point x="384" y="-7"/>
      <point x="377" y="0"/>
      <point x="368" y="0" type="curve" smooth="yes"/>
      <point x="123" y="0" type="line"/>
      <point x="139" y="-16" type="line"/>
      <point x="139" y="1216" type="line"/>
      <point x="123" y="1200" type="line"/>
    </contour>
  </outline>
</glyph>
<glyph name="d" format="1">
  <advance width="934"/>
  <unicode hex="0064"/>
  <outline>
    <contour>
      <point x="854" y="535" type="curve" smooth="yes"/>
      <point x="854" y="748"/>
      <point x="680" y="922"/>
      <point x="467" y="922" type="curve" smooth="yes"/>
      <point x="254" y="922"/>
      <point x="80" y="748"/>
      <point x="80" y="535" type="curve" smooth="yes"/>
      <point x="80" y="371" type="line" smooth="yes"/>
      <point x="80" y="158"/>
      <point x="254" y="-16"/>
      <point x="467" y="-16" type="curve" smooth="yes"/>
      <point x="680" y="-16"/>
      <point x="854" y="158"/>
      <point x="854" y="371" type="curve" smooth="yes"/>
      <point x="854" y="1200" type="line" smooth="yes"/>
      <point x="854" y="1209"/>
      <point x="847" y="1216"/>
      <point x="838" y="1216" type="curve" smooth="yes"/>
      <point x="829" y="1216"/>
      <point x="822" y="1209"/>
      <point x="822" y="1200" type="curve" smooth="yes"/>
      <point x="822" y="371" type="line" smooth="yes"/>
      <point x="822" y="176"/>
      <point x="662" y="16"/>
      <point x="467" y="16" type="curve" smooth="yes"/>
      <point x="272" y="16"/>
      <point x="112" y="176"/>
      <point x="112" y="371" type="curve" smooth="yes"/>
      <point x="112" y="535" type="line" smooth="yes"/>
      <point x="112" y="730"/>
      <point x="272" y="890"/>
      <point x="467" y="890" type="curve" smooth="yes"/>
      <point x="662" y="890"/>
      <point x="822" y="730"/>
      <point x="822" y="535" type="curve" smooth="yes"/>
      <point x="822" y="526"/>
      <point x="829" y="519"/>
      <point x="838" y="519" type="curve" smooth="yes"/>
      <point x="847" y="519"/>
      <point x="854" y="526"/>
    </contour>
  </outline>
</glyph>
<glyph name="e" format="1">
  <advance width="934"/>
  <unicode hex="0065"/>
  <outline>
    <contour>
      <point x="763" y="152" type="curve" smooth="yes"/>
      <point x="767" y="159"/>
      <point x="765" y="168"/>
      <point x="758" y="172" type="curve" smooth="yes"/>
      <point x="751" y="176"/>
      <point x="742" y="174"/>
      <point x="738" y="167" type="curve" smooth="yes"/>
      <point x="685" y="78"/>
      <point x="583" y="16"/>
      <point x="467" y="16" type="curve" smooth="yes"/>
      <point x="272" y="16"/>
      <point x="112" y="176"/>
      <point x="112" y="371" type="curve" smooth="yes"/>
      <point x="112" y="535" type="line" smooth="yes"/>
      <point x="112" y="730"/>
      <point x="272" y="890"/>
      <point x="467" y="890" type="curve" smooth="yes"/>
      <point x="662" y="890"/>
      <point x="822" y="730"/>
      <point x="822" y="535" type="curve" smooth="yes"/>
      <point x="822" y="455" type="line"/>
      <point x="838" y="471" type="line"/>
      <point x="107" y="471" type="line" smooth="yes"/>
      <point x="98" y="471"/>
      <point x="91" y="464"/>
      <point x="91" y="455" type="curve" smooth="yes"/>
      <point x="91" y="446"/>
      <point x="98" y="439"/>
      <point x="107" y="439" type="curve" smooth="yes"/>
      <point x="838" y="439" type="line" smooth="yes"/>
      <point x="847" y="439"/>
      <point x="854" y="446"/>
      <point x="854" y="455" type="curve" smooth="yes"/>
      <point x="854" y="535" type="line" smooth="yes"/>
      <point x="854" y="748"/>
      <point x="680" y="922"/>
      <point x="467" y="922" type="curve" smooth="yes"/>
      <point x="254" y="922"/>
      <point x="80" y="748"/>
      <point x="80" y="535" type="curve" smooth="yes"/>
      <point x="80" y="371" type="line" smooth="yes"/>
      <point x="80" y="158"/>
      <point x="254" y="-16"/>
      <point x="467" y="-16" type="curve" smooth="yes"/>
      <point x="595" y="-16"/>
      <point x="706" y="53"/>
    </contour>
  </outline>
</glyph>
<glyph name="g" format="1">
  <advance width="935"/>
  <unicode hex="0067"/>
  <outline>
    <contour>
      <point x="112" y="-93" type="curve" smooth="yes"/>
      <point x="112" y="-84"/>
      <point x="105" y="-77"/>
      <point x="96" y="-77" type="curve" smooth="yes"/>
      <point x="87" y="-77"/>
      <point x="80" y="-84"/>
      <point x="80" y="-93" type="curve" smooth="yes"/>
      <point x="80" y="-306"/>
      <point x="254" y="-480"/>
      <point x="467" y="-480" type="curve" smooth="yes"/>
      <point x="681" y="-480"/>
      <point x="855" y="-306"/>
      <point x="855" y="-93" type="curve" smooth="yes"/>
      <point x="855" y="535" type="line" smooth="yes"/>
      <point x="855" y="748"/>
      <point x="681" y="922"/>
      <point x="467" y="922" type="curve" smooth="yes"/>
      <point x="254" y="922"/>
      <point x="80" y="748"/>
      <point x="80" y="535" type="curve" smooth="yes"/>
      <point x="80" y="371" type="line" smooth="yes"/>
      <point x="80" y="158"/>
      <point x="254" y="-16"/>
      <point x="467" y="-16" type="curve" smooth="yes"/>
      <point x="681" y="-16"/>
      <point x="855" y="158"/>
      <point x="855" y="371" type="curve" smooth="yes"/>
      <point x="855" y="380"/>
      <point x="848" y="387"/>
      <point x="839" y="387" type="curve" smooth="yes"/>
      <point x="830" y="387"/>
      <point x="823" y="380"/>
      <point x="823" y="371" type="curve" smooth="yes"/>
      <point x="823" y="176"/>
      <point x="663" y="16"/>
      <point x="467" y="16" type="curve" smooth="yes"/>
      <point x="272" y="16"/>
      <point x="112" y="176"/>
      <point x="112" y="371" type="curve" smooth="yes"/>
      <point x="112" y="535" type="line" smooth="yes"/>
      <point x="112" y="730"/>
      <point x="272" y="890"/>
      <point x="467" y="890" type="curve" smooth="yes"/>
      <point x="663" y="890"/>
      <point x="823" y="730"/>
      <point x="823" y="535" type="curve" smooth="yes"/>
      <point x="823" y="-93" type="line" smooth="yes"/>
      <point x="823" y="-288"/>
      <point x="663" y="-448"/>
      <point x="467" y="-448" type="curve" smooth="yes"/>
      <point x="272" y="-448"/>
      <point x="112" y="-288"/>
    </contour>
  </outline>
</glyph>
<glyph name="m" format="1">
  <advance width="1183"/>
  <unicode hex="006D"/>
  <outline>
    <contour>
      <point x="112" y="820" type="line"/>
      <point x="112" y="829"/>
      <point x="105" y="836"/>
      <point x="96" y="836" type="curve" smooth="yes"/>
      <point x="87" y="836"/>
      <point x="80" y="829"/>
      <point x="80" y="820" type="curve" smooth="yes"/>
      <point x="80" y="16" type="line" smooth="yes"/>
      <point x="80" y="7"/>
      <point x="87" y="0"/>
      <point x="96" y="0" type="curve" smooth="yes"/>
      <point x="105" y="0"/>
      <point x="112" y="7"/>
      <point x="112" y="16" type="curve" smooth="yes"/>
    </contour>
    <contour>
      <point x="585" y="721" type="curve" smooth="yes"/>
      <point x="582" y="713"/>
      <point x="588" y="704"/>
      <point x="596" y="702" type="curve" smooth="yes"/>
      <point x="604" y="699"/>
      <point x="613" y="705"/>
      <point x="615" y="713" type="curve" smooth="yes"/>
      <point x="642" y="812"/>
      <point x="732" y="885"/>
      <point x="839" y="885" type="curve" smooth="yes"/>
      <point x="966" y="885"/>
      <point x="1071" y="781"/>
      <point x="1071" y="653" type="curve" smooth="yes"/>
      <point x="1071" y="16" type="line" smooth="yes"/>
      <point x="1071" y="7"/>
      <point x="1078" y="0"/>
      <point x="1087" y="0" type="curve" smooth="yes"/>
      <point x="1096" y="0"/>
      <point x="1103" y="7"/>
      <point x="1103" y="16" type="curve" smooth="yes"/>
      <point x="1103" y="653" type="line" smooth="yes"/>
      <point x="1103" y="799"/>
      <point x="984" y="917"/>
      <point x="839" y="917" type="curve" smooth="yes"/>
      <point x="718" y="917"/>
      <point x="614" y="834"/>
    </contour>
    <contour>
      <point x="89" y="721" type="curve" smooth="yes"/>
      <point x="86" y="713"/>
      <point x="92" y="704"/>
      <point x="100" y="702" type="curve" smooth="yes"/>
      <point x="108" y="699"/>
      <point x="117" y="705"/>
      <point x="119" y="713" type="curve" smooth="yes"/>
      <point x="146" y="812"/>
      <point x="236" y="885"/>
      <point x="344" y="885" type="curve" smooth="yes"/>
      <point x="471" y="885"/>
      <point x="575" y="781"/>
      <point x="575" y="653" type="curve" smooth="yes"/>
      <point x="575" y="16" type="line" smooth="yes"/>
      <point x="575" y="7"/>
      <point x="582" y="0"/>
      <point x="591" y="0" type="curve" smooth="yes"/>
      <point x="600" y="0"/>
      <point x="607" y="7"/>
      <point x="607" y="16" type="curve" smooth="yes"/>
      <point x="607" y="653" type="line" smooth="yes"/>
      <point x="607" y="799"/>
      <point x="489" y="917"/>
      <point x="344" y="917" type="curve" smooth="yes"/>
      <point x="222" y="917"/>
      <point x="118" y="834"/>
    </contour>
  </outline>
</glyph>
<glyph name="n" format="1">
  <advance width="935"/>
  <unicode hex="006E"/>
  <outline>
    <contour>
      <point x="112" y="890" type="line"/>
      <point x="112" y="899"/>
      <point x="105" y="906"/>
      <point x="96" y="906" type="curve" smooth="yes"/>
      <point x="87" y="906"/>
      <point x="80" y="899"/>
      <point x="80" y="890" type="curve" smooth="yes"/>
      <point x="80" y="16" type="line" smooth="yes"/>
      <point x="80" y="7"/>
      <point x="87" y="0"/>
      <point x="96" y="0" type="curve" smooth="yes"/>
      <point x="105" y="0"/>
      <point x="112" y="7"/>
      <point x="112" y="16" type="curve" smooth="yes"/>
    </contour>
    <contour>
      <point x="823" y="16" type="line"/>
      <point x="823" y="7"/>
      <point x="830" y="0"/>
      <point x="839" y="0" type="curve" smooth="yes"/>
      <point x="848" y="0"/>
      <point x="855" y="7"/>
      <point x="855" y="16" type="curve" smooth="yes"/>
      <point x="855" y="535" type="line" smooth="yes"/>
      <point x="855" y="748"/>
      <point x="681" y="922"/>
      <point x="467" y="922" type="curve" smooth="yes"/>
      <point x="276" y="922"/>
      <point x="117" y="782"/>
      <point x="85" y="600" type="curve" smooth="yes"/>
      <point x="84" y="591"/>
      <point x="90" y="583"/>
      <point x="99" y="581" type="curve" smooth="yes"/>
      <point x="107" y="580"/>
      <point x="116" y="586"/>
      <point x="117" y="595" type="curve" smooth="yes"/>
      <point x="145" y="762"/>
      <point x="292" y="890"/>
      <point x="467" y="890" type="curve" smooth="yes"/>
      <point x="663" y="890"/>
      <point x="823" y="730"/>
      <point x="823" y="535" type="curve" smooth="yes"/>
    </contour>
  </outline>
</glyph>
<glyph name="o" format="1">
  <advance width="934"/>
  <unicode hex="006F"/>
  <outline>
    <contour>
      <point x="80" y="371" type="line"/>
      <point x="80" y="158"/>
      <point x="254" y="-16"/>
      <point x="467" y="-16" type="curve" smooth="yes"/>
      <point x="680" y="-16"/>
      <point x="854" y="158"/>
      <point x="854" y="371" type="curve" smooth="yes"/>
      <point x="854" y="535" type="line" smooth="yes"/>
      <point x="854" y="748"/>
      <point x="680" y="922"/>
      <point x="467" y="922" type="curve" smooth="yes"/>
      <point x="254" y="922"/>
      <point x="80" y="748"/>
      <point x="80" y="535" type="curve" smooth="yes"/>
    </contour>
    <contour>
      <point x="112" y="371" type="curve" smooth="yes"/>
      <point x="112" y="535" type="line" smooth="yes"/>
      <point x="112" y="730"/>
      <point x="272" y="890"/>
      <point x="467" y="890" type="curve" smooth="yes"/>
      <point x="662" y="890"/>
      <point x="822" y="730"/>
      <point x="822" y="535" type="curve" smooth="yes"/>
      <point x="822" y="371" type="line" smooth="yes"/>
      <point x="822" y="176"/>
      <point x="662" y="16"/>
      <point x="467" y="16" type="curve" smooth="yes"/>
      <point x="272" y="16"/>
      <point x="112" y="176"/>
    </contour>
  </outline>
</glyph>
<glyph name="q" format="1">
  <advance width="935"/>
  <unicode hex="0071"/>
  <outline>
    <contour>
      <point x="855" y="371" type="curve" smooth="yes"/>
      <point x="855" y="380"/>
      <point x="848" y="387"/>
      <point x="839" y="387" type="curve" smooth="yes"/>
      <point x="830" y="387"/>
      <point x="823" y="380"/>
      <point x="823" y="371" type="curve" smooth="yes"/>
      <point x="823" y="176"/>
      <point x="663" y="16"/>
      <point x="467" y="16" type="curve" smooth="yes"/>
      <point x="272" y="16"/>
      <point x="112" y="176"/>
      <point x="112" y="371" type="curve" smooth="yes"/>
      <point x="112" y="535" type="line" smooth="yes"/>
      <point x="112" y="730"/>
      <point x="272" y="890"/>
      <point x="467" y="890" type="curve" smooth="yes"/>
      <point x="663" y="890"/>
      <point x="823" y="730"/>
      <point x="823" y="535" type="curve" smooth="yes"/>
      <point x="823" y="-294" type="line" smooth="yes"/>
      <point x="823" y="-303"/>
      <point x="830" y="-310"/>
      <point x="839" y="-310" type="curve" smooth="yes"/>
      <point x="848" y="-310"/>
      <point x="855" y="-303"/>
      <point x="855" y="-294" type="curve" smooth="yes"/>
      <point x="855" y="535" type="line" smooth="yes"/>
      <point x="855" y="748"/>
      <point x="681" y="922"/>
      <point x="467" y="922" type="curve" smooth="yes"/>
      <point x="254" y="922"/>
      <point x="80" y="748"/>
      <point x="80" y="535" type="curve" smooth="yes"/>
      <point x="80" y="371" type="line" smooth="yes"/>
      <point x="80" y="158"/>
      <point x="254" y="-16"/>
      <point x="467" y="-16" type="curve" smooth="yes"/>
      <point x="681" y="-16"/>
      <point x="855" y="158"/>
    </contour>
  </outline>
</glyph>
<glyph name="r" format="1">
  <advance width="503"/>
  <unicode hex="0072"/>
  <outline>
    <contour>
      <point x="467" y="890" type="curve" smooth="yes"/>
      <point x="476" y="890"/>
      <point x="483" y="897"/>
      <point x="483" y="906" type="curve" smooth="yes"/>
      <point x="483" y="915"/>
      <point x="476" y="922"/>
      <point x="467" y="922" type="curve" smooth="yes"/>
      <point x="281" y="922"/>
      <point x="124" y="788"/>
      <point x="89" y="612" type="curve" smooth="yes"/>
      <point x="87" y="604"/>
      <point x="93" y="595"/>
      <point x="101" y="593" type="curve" smooth="yes"/>
      <point x="109" y="591"/>
      <point x="118" y="597"/>
      <point x="120" y="605" type="curve" smooth="yes"/>
      <point x="152" y="767"/>
      <point x="296" y="890"/>
    </contour>
    <contour>
      <point x="112" y="820" type="line"/>
      <point x="112" y="829"/>
      <point x="105" y="836"/>
      <point x="96" y="836" type="curve" smooth="yes"/>
      <point x="87" y="836"/>
      <point x="80" y="829"/>
      <point x="80" y="820" type="curve" smooth="yes"/>
      <point x="80" y="16" type="line" smooth="yes"/>
      <point x="80" y="7"/>
      <point x="87" y="0"/>
      <point x="96" y="0" type="curve" smooth="yes"/>
      <point x="105" y="0"/>
      <point x="112" y="7"/>
      <point x="112" y="16" type="curve" smooth="yes"/>
    </contour>
  </outline>
</glyph>
<glyph name="s" format="1">
  <advance width="939"/>
  <unicode hex="0073"/>
  <outline>
    <contour>
      <point x="112" y="227" type="curve" smooth="yes"/>
      <point x="112" y="236"/>
      <point x="105" y="243"/>
      <point x="96" y="243" type="curve" smooth="yes"/>
      <point x="87" y="243"/>
      <point x="80" y="236"/>
      <point x="80" y="227" type="curve" smooth="yes"/>
      <point x="80" y="93"/>
      <point x="189" y="-16"/>
      <point x="323" y="-16" type="curve" smooth="yes"/>
      <point x="616" y="-16" type="line" smooth="yes"/>
      <point x="750" y="-16"/>
      <point x="859" y="93"/>
      <point x="859" y="227" type="curve" smooth="yes"/>
      <point x="859" y="231" type="line" smooth="yes"/>
      <point x="859" y="365"/>
      <point x="750" y="474"/>
      <point x="616" y="474" type="curve" smooth="yes"/>
      <point x="323" y="474" type="line" smooth="yes"/>
      <point x="209" y="474"/>
      <point x="115" y="568"/>
      <point x="115" y="682" type="curve" smooth="yes"/>
      <point x="115" y="796"/>
      <point x="209" y="890"/>
      <point x="323" y="890" type="curve" smooth="yes"/>
      <point x="616" y="890" type="line" smooth="yes"/>
      <point x="731" y="890"/>
      <point x="825" y="796"/>
      <point x="825" y="682" type="curve" smooth="yes"/>
      <point x="825" y="673"/>
      <point x="832" y="666"/>
      <point x="841" y="666" type="curve" smooth="yes"/>
      <point x="850" y="666"/>
      <point x="857" y="673"/>
      <point x="857" y="682" type="curve" smooth="yes"/>
      <point x="857" y="814"/>
      <point x="749" y="922"/>
      <point x="616" y="922" type="curve" smooth="yes"/>
      <point x="323" y="922" type="line" smooth="yes"/>
      <point x="191" y="922"/>
      <point x="83" y="814"/>
      <point x="83" y="682" type="curve" smooth="yes"/>
      <point x="83" y="550"/>
      <point x="191" y="442"/>
      <point x="323" y="442" type="curve" smooth="yes"/>
      <point x="616" y="442" type="line" smooth="yes"/>
      <point x="732" y="442"/>
      <point x="827" y="347"/>
      <point x="827" y="231" type="curve" smooth="yes"/>
      <point x="827" y="227" type="line" smooth="yes"/>
      <point x="827" y="111"/>
      <point x="732" y="16"/>
      <point x="616" y="16" type="curve" smooth="yes"/>
      <point x="323" y="16" type="line" smooth="yes"/>
      <point x="207" y="16"/>
      <point x="112" y="111"/>
    </contour>
  </outline>
</glyph>
<glyph name="u" format="1">
  <advance width="935"/>
  <unicode hex="0075"/>
  <outline>
    <contour>
      <point x="112" y="890" type="line"/>
      <point x="112" y="899"/>
      <point x="105" y="906"/>
      <point x="96" y="906" type="curve" smooth="yes"/>
      <point x="87" y="906"/>
      <point x="80" y="899"/>
      <point x="80" y="890" type="curve" smooth="yes"/>
      <point x="80" y="371" type="line" smooth="yes"/>
      <point x="80" y="158"/>
      <point x="254" y="-16"/>
      <point x="467" y="-16" type="curve" smooth="yes"/>
      <point x="651" y="-16"/>
      <point x="805" y="113"/>
      <point x="845" y="285" type="curve" smooth="yes"/>
      <point x="846" y="293"/>
      <point x="842" y="302"/>
      <point x="833" y="305" type="curve" smooth="yes"/>
      <point x="825" y="306"/>
      <point x="816" y="302"/>
      <point x="813" y="293" type="curve" smooth="yes"/>
      <point x="778" y="135"/>
      <point x="635" y="16"/>
      <point x="467" y="16" type="curve" smooth="yes"/>
      <point x="272" y="16"/>
      <point x="112" y="176"/>
      <point x="112" y="371" type="curve" smooth="yes"/>
    </contour>
    <contour>
      <point x="823" y="16" type="line"/>
      <point x="823" y="7"/>
      <point x="830" y="0"/>
      <point x="839" y="0" type="curve" smooth="yes"/>
      <point x="848" y="0"/>
      <point x="855" y="7"/>
      <point x="855" y="16" type="curve" smooth="yes"/>
      <point x="855" y="890" type="line" smooth="yes"/>
      <point x="855" y="899"/>
      <point x="848" y="906"/>
      <point x="839" y="906" type="curve" smooth="yes"/>
      <point x="830" y="906"/>
      <point x="823" y="899"/>
      <point x="823" y="890" type="curve" smooth="yes"/>
    </contour>
  </outline>
</glyph>
<glyph name="z" format="1">
  <advance width="936.0"/>
  <unicode hex="007A"/>
  <outline>
    <contour>
      <point x="97" y="906" type="line"/>
      <point x="88" y="906"/>
      <point x="81" y="899"/>
      <point x="81" y="890" type="curve" smooth="yes"/>
      <point x="81" y="881"/>
      <point x="88" y="874"/>
      <point x="97" y="874" type="curve" smooth="yes"/>
      <point x="839" y="874" type="line"/>
      <point x="827" y="900" type="line"/>
      <point x="85" y="26" type="line" smooth="yes"/>
      <point x="75" y="15"/>
      <point x="82" y="0"/>
      <point x="97" y="0" type="curve" smooth="yes"/>
      <point x="839" y="0" type="line" smooth="yes"/>
      <point x="848" y="0"/>
      <point x="855" y="7"/>
      <point x="855" y="16" type="curve" smooth="yes"/>
      <point x="855" y="25"/>
      <point x="848" y="32"/>
      <point x="839" y="32" type="curve" smooth="yes"/>
      <point x="97" y="32" type="line"/>
      <point x="109" y="6" type="line"/>
      <point x="851" y="880" type="line" smooth="yes"/>
      <point x="861" y="891"/>
      <point x="854" y="906"/>
      <point x="839" y="906" type="curve" smooth="yes"/>
    </contour>
  </outline>
</glyph>
<glyph name="braceleft" format="1">
  <advance width="384.0"/>
  <unicode hex="007B"/>
  <outline>
    <contour>
      <point x="308" y="-32" type="curve" smooth="yes"/>
      <point x="316" y="-32"/>
      <point x="324" y="-24"/>
      <point x="324" y="-16" type="curve" smooth="yes"/>
      <point x="324" y="-8"/>
      <point x="316" y="0"/>
      <point x="308" y="0" type="curve" smooth="yes"/>
      <point x="258" y="0"/>
      <point x="218" y="40"/>
      <point x="218" y="90" type="curve" smooth="yes"/>
      <point x="218" y="546" type="line" smooth="yes"/>
      <point x="218" y="592"/>
      <point x="192" y="632"/>
      <point x="156" y="652" type="curve"/>
      <point x="192" y="674"/>
      <point x="218" y="714"/>
      <point x="218" y="758" type="curve" smooth="yes"/>
      <point x="218" y="1110" type="line" smooth="yes"/>
      <point x="218" y="1160"/>
      <point x="258" y="1200"/>
      <point x="308" y="1200" type="curve" smooth="yes"/>
      <point x="316" y="1200"/>
      <point x="324" y="1208"/>
      <point x="324" y="1216" type="curve" smooth="yes"/>
      <point x="324" y="1224"/>
      <point x="316" y="1232"/>
      <point x="308" y="1232" type="curve" smooth="yes"/>
      <point x="240" y="1232"/>
      <point x="186" y="1178"/>
      <point x="186" y="1110" type="curve" smooth="yes"/>
      <point x="186" y="758" type="line" smooth="yes"/>
      <point x="186" y="710"/>
      <point x="146" y="668"/>
      <point x="96" y="668" type="curve" smooth="yes"/>
      <point x="88" y="668"/>
      <point x="80" y="662"/>
      <point x="80" y="652" type="curve" smooth="yes"/>
      <point x="80" y="644"/>
      <point x="88" y="636"/>
      <point x="96" y="636" type="curve" smooth="yes"/>
      <point x="146" y="636"/>
      <point x="186" y="596"/>
      <point x="186" y="546" type="curve" smooth="yes"/>
      <point x="186" y="90" type="line" smooth="yes"/>
      <point x="186" y="22"/>
      <point x="240" y="-32"/>
    </contour>
  </outline>
</glyph>
<glyph name="bar" format="1">
  <advance width="312"/>
  <unicode hex="007C"/>
  <outline>
    <contour>
      <point x="156" y="1296" type="curve" smooth="yes"/>
      <point x="148" y="1296"/>
      <point x="140" y="1288"/>
      <point x="140" y="1280" type="curve" smooth="yes"/>
      <point x="140" y="-80" type="line" smooth="yes"/>
      <point x="140" y="-88"/>
      <point x="148" y="-96"/>
      <point x="156" y="-96" type="curve" smooth="yes"/>
      <point x="164" y="-96"/>
      <point x="172" y="-88"/>
      <point x="172" y="-80" type="curve" smooth="yes"/>
      <point x="172" y="1280" type="line" smooth="yes"/>
      <point x="172" y="1288"/>
      <point x="164" y="1296"/>
    </contour>
  </outline>
</glyph>
<glyph name="asciitilde" format="1">
  <advance width="746"/>
  <unicode hex="007E"/>
  <outline>
    <contour>
      <point x="143" y="652" type="curve" smooth="yes"/>
      <point x="138" y="645"/>
      <point x="140" y="635"/>
      <point x="147" y="631" type="curve" smooth="yes"/>
      <point x="154" y="626"/>
      <point x="163" y="628"/>
      <point x="168" y="635" type="curve" smooth="yes"/>
      <point x="213" y="694"/>
      <point x="306" y="703"/>
      <point x="361" y="642" type="curve" smooth="yes"/>
      <point x="432" y="562"/>
      <point x="549" y="576"/>
      <point x="603" y="653" type="curve" smooth="yes"/>
      <point x="608" y="660"/>
      <point x="606" y="669"/>
      <point x="599" y="674" type="curve" smooth="yes"/>
      <point x="592" y="678"/>
      <point x="583" y="676"/>
      <point x="578" y="670" type="curve" smooth="yes"/>
      <point x="533" y="610"/>
      <point x="440" y="601"/>
      <point x="385" y="663" type="curve" smooth="yes"/>
      <point x="314" y="744"/>
      <point x="197" y="728"/>
    </contour>
  </outline>
</glyph>
<glyph name="cent" format="1">
  <advance width="935"/>
  <unicode hex="00A2"/>
  <outline>
    <contour>
      <point x="763" y="152" type="curve" smooth="yes"/>
      <point x="767" y="159"/>
      <point x="765" y="168"/>
      <point x="758" y="172" type="curve" smooth="yes"/>
      <point x="751" y="176"/>
      <point x="742" y="174"/>
      <point x="738" y="167" type="curve" smooth="yes"/>
      <point x="685" y="78"/>
      <point x="583" y="16"/>
      <point x="467" y="16" type="curve" smooth="yes"/>
      <point x="272" y="16"/>
      <point x="112" y="176"/>
      <point x="112" y="371" type="curve" smooth="yes"/>
      <point x="112" y="535" type="line" smooth="yes"/>
      <point x="112" y="730"/>
      <point x="272" y="890"/>
      <point x="467" y="890" type="curve" smooth="yes"/>
      <point x="583" y="890"/>
      <point x="685" y="828"/>
      <point x="738" y="739" type="curve" smooth="yes"/>
      <point x="742" y="732"/>
      <point x="751" y="730"/>
      <point x="758" y="734" type="curve" smooth="yes"/>
      <point x="765" y="738"/>
      <point x="767" y="747"/>
      <point x="763" y="754" type="curve" smooth="yes"/>
      <point x="706" y="853"/>
      <point x="595" y="922"/>
      <point x="467" y="922" type="curve" smooth="yes"/>
      <point x="254" y="922"/>
      <point x="80" y="748"/>
      <point x="80" y="535" type="curve" smooth="yes"/>
      <point x="80" y="371" type="line" smooth="yes"/>
      <point x="80" y="158"/>
      <point x="254" y="-16"/>
      <point x="467" y="-16" type="curve" smooth="yes"/>
      <point x="595" y="-16"/>
      <point x="706" y="53"/>
    </contour>
    <contour>
      <point x="483" y="968" type="line"/>
      <point x="483" y="977"/>
      <point x="476" y="984"/>
      <point x="467" y="984" type="curve" smooth="yes"/>
      <point x="458" y="984"/>
      <point x="451" y="977"/>
      <point x="451" y="968" type="curve" smooth="yes"/>
      <point x="451" y="-73" type="line" smooth="yes"/>
      <point x="451" y="-82"/>
      <point x="458" y="-89"/>
      <point x="467" y="-89" type="curve" smooth="yes"/>
      <point x="476" y="-89"/>
      <point x="483" y="-82"/>
      <point x="483" y="-73" type="curve" smooth="yes"/>
    </contour>
  </outline>
</glyph>
<glyph name="yen" format="1">
  <advance width="1070.0"/>
  <unicode hex="00A5"/>
  <outline>
    <contour>
      <point x="101" y="1198" type="line"/>
      <point x="96" y="1205"/>
      <point x="86" y="1207"/>
      <point x="80" y="1202" type="curve" smooth="yes"/>
      <point x="73" y="1197"/>
      <point x="71" y="1187"/>
      <point x="76" y="1180" type="curve" smooth="yes"/>
      <point x="526" y="566" type="line" smooth="yes"/>
      <point x="533" y="553"/>
      <point x="544" y="553"/>
      <point x="551" y="566" type="curve" smooth="yes"/>
      <point x="1000" y="1180" type="line" smooth="yes"/>
      <point x="1005" y="1187"/>
      <point x="1003" y="1197"/>
      <point x="996" y="1202" type="curve" smooth="yes"/>
      <point x="990" y="1207"/>
      <point x="980" y="1205"/>
      <point x="975" y="1198" type="curve" smooth="yes"/>
      <point x="526" y="584" type="line"/>
      <point x="551" y="584" type="line"/>
    </contour>
    <contour>
      <point x="522" y="16" type="line"/>
      <point x="522" y="7"/>
      <point x="529" y="0"/>
      <point x="538" y="0" type="curve" smooth="yes"/>
      <point x="547" y="0"/>
      <point x="554" y="7"/>
      <point x="554" y="16" type="curve" smooth="yes"/>
      <point x="554" y="575" type="line" smooth="yes"/>
      <point x="554" y="584"/>
      <point x="547" y="591"/>
      <point x="538" y="591" type="curve" smooth="yes"/>
      <point x="529" y="591"/>
      <point x="522" y="584"/>
      <point x="522" y="575" type="curve" smooth="yes"/>
    </contour>
    <contour>
      <point x="340" y="445" type="line"/>
      <point x="331" y="445"/>
      <point x="324" y="438"/>
      <point x="324" y="429" type="curve" smooth="yes"/>
      <point x="324" y="420"/>
      <point x="331" y="413"/>
      <point x="340" y="413" type="curve" smooth="yes"/>
      <point x="735" y="413" type="line" smooth="yes"/>
      <point x="744" y="413"/>
      <point x="751" y="420"/>
      <point x="751" y="429" type="curve" smooth="yes"/>
      <point x="751" y="438"/>
      <point x="744" y="445"/>
      <point x="735" y="445" type="curve" smooth="yes"/>
    </contour>
    <contour>
      <point x="340" y="365" type="line"/>
      <point x="331" y="365"/>
      <point x="324" y="358"/>
      <point x="324" y="349" type="curve" smooth="yes"/>
      <point x="324" y="340"/>
      <point x="331" y="333"/>
      <point x="340" y="333" type="curve" smooth="yes"/>
      <point x="735" y="333" type="line" smooth="yes"/>
      <point x="744" y="333"/>
      <point x="751" y="340"/>
      <point x="751" y="349" type="curve" smooth="yes"/>
      <point x="751" y="358"/>
      <point x="744" y="365"/>
      <point x="735" y="365" type="curve" smooth="yes"/>
    </contour>
  </outline>
</glyph>
<glyph name="copyright" format="1">
  <advance width="1102"/>
  <unicode hex="00A9"/>
  <outline>
    <contour>
      <point x="762" y="875" type="curve" smooth="yes"/>
      <point x="766" y="868"/>
      <point x="776" y="865"/>
      <point x="782" y="869" type="curve" smooth="yes"/>
      <point x="789" y="873"/>
      <point x="792" y="883"/>
      <point x="788" y="889" type="curve" smooth="yes"/>
      <point x="740" y="963"/>
      <point x="648" y="1015"/>
      <point x="549" y="1015" type="curve" smooth="yes"/>
      <point x="373" y="1015"/>
      <point x="229" y="872"/>
      <point x="229" y="697" type="curve" smooth="yes"/>
      <point x="229" y="492" type="line" smooth="yes"/>
      <point x="229" y="316"/>
      <point x="373" y="173"/>
      <point x="549" y="173" type="curve" smooth="yes"/>
      <point x="648" y="173"/>
      <point x="740" y="225"/>
      <point x="788" y="299" type="curve" smooth="yes"/>
      <point x="792" y="306"/>
      <point x="789" y="315"/>
      <point x="782" y="319" type="curve" smooth="yes"/>
      <point x="776" y="323"/>
      <point x="766" y="321"/>
      <point x="762" y="314" type="curve" smooth="yes"/>
      <point x="717" y="249"/>
      <point x="638" y="205"/>
      <point x="549" y="205" type="curve" smooth="yes"/>
      <point x="390" y="205"/>
      <point x="261" y="333"/>
      <point x="261" y="492" type="curve" smooth="yes"/>
      <point x="261" y="697" type="line" smooth="yes"/>
      <point x="261" y="855"/>
      <point x="390" y="983"/>
      <point x="549" y="983" type="curve" smooth="yes"/>
      <point x="638" y="983"/>
      <point x="717" y="939"/>
    </contour>
    <component base="O"/>
  </outline>
</glyph>
<glyph name="registered" format="1">
  <advance width="1063"/>
  <unicode hex="00AE"/>
  <outline>
    <contour>
      <point x="301" y="232" type="line"/>
      <point x="301" y="223"/>
      <point x="308" y="216"/>
      <point x="317" y="216" type="curve" smooth="yes"/>
      <point x="326" y="216"/>
      <point x="333" y="223"/>
      <point x="333" y="232" type="curve" smooth="yes"/>
      <point x="333" y="962" type="line"/>
      <point x="317" y="946" type="line"/>
      <point x="644" y="946" type="line" smooth="yes"/>
      <point x="761" y="946"/>
      <point x="857" y="851"/>
      <point x="857" y="734" type="curve" smooth="yes"/>
      <point x="857" y="690" type="line" smooth="yes"/>
      <point x="857" y="573"/>
      <point x="761" y="478"/>
      <point x="644" y="478" type="curve" smooth="yes"/>
      <point x="327" y="477" type="line" smooth="yes"/>
      <point x="318" y="477"/>
      <point x="311" y="470"/>
      <point x="311" y="461" type="curve" smooth="yes"/>
      <point x="311" y="452"/>
      <point x="319" y="445"/>
      <point x="327" y="445" type="curve" smooth="yes"/>
      <point x="644" y="446" type="line" smooth="yes"/>
      <point x="779" y="446"/>
      <point x="889" y="555"/>
      <point x="889" y="690" type="curve" smooth="yes"/>
      <point x="889" y="734" type="line" smooth="yes"/>
      <point x="889" y="869"/>
      <point x="779" y="978"/>
      <point x="644" y="978" type="curve" smooth="yes"/>
      <point x="317" y="978" type="line" smooth="yes"/>
      <point x="308" y="978"/>
      <point x="301" y="971"/>
      <point x="301" y="962" type="curve" smooth="yes"/>
    </contour>
    <contour>
      <point x="763" y="222" type="line"/>
      <point x="768" y="215"/>
      <point x="778" y="213"/>
      <point x="785" y="218" type="curve" smooth="yes"/>
      <point x="792" y="223"/>
      <point x="794" y="234"/>
      <point x="789" y="240" type="curve" smooth="yes"/>
      <point x="642" y="465" type="line" smooth="yes"/>
      <point x="637" y="472"/>
      <point x="627" y="474"/>
      <point x="620" y="469" type="curve" smooth="yes"/>
      <point x="613" y="464"/>
      <point x="611" y="454"/>
      <point x="616" y="447" type="curve"/>
    </contour>
    <component base="O"/>
  </outline>
</glyph>
<glyph name="multiply" format="1">
  <advance width="840"/>
  <unicode hex="00D7"/>
  <outline>
    <contour>
      <point x="507" y="183" type="curve" smooth="yes"/>
      <point x="511" y="179"/>
      <point x="660" y="321"/>
      <point x="664" y="325" type="curve" smooth="yes"/>
      <point x="670" y="331"/>
      <point x="670" y="341"/>
      <point x="664" y="347" type="curve" smooth="yes"/>
      <point x="662" y="349"/>
      <point x="335" y="671"/>
      <point x="333" y="669" type="curve" smooth="yes"/>
      <point x="329" y="673"/>
      <point x="181" y="531"/>
      <point x="177" y="527" type="curve" smooth="yes"/>
      <point x="171" y="521"/>
      <point x="171" y="511"/>
      <point x="177" y="505" type="curve" smooth="yes"/>
      <point x="179" y="503"/>
      <point x="505" y="181"/>
    </contour>
    <contour>
      <point x="514" y="647" type="curve" smooth="yes"/>
      <point x="518" y="651"/>
      <point x="660" y="516"/>
      <point x="656" y="520" type="curve" smooth="yes"/>
      <point x="654" y="522"/>
      <point x="651" y="522"/>
      <point x="649" y="520" type="curve" smooth="yes"/>
      <point x="651" y="522"/>
      <point x="328" y="203"/>
      <point x="326" y="205" type="curve" smooth="yes"/>
      <point x="322" y="201"/>
      <point x="180" y="336"/>
      <point x="184" y="332" type="curve" smooth="yes"/>
      <point x="186" y="330"/>
      <point x="189" y="330"/>
      <point x="191" y="332" type="curve" smooth="yes"/>
      <point x="189" y="330"/>
      <point x="512" y="649"/>
    </contour>
  </outline>
</glyph>
<glyph name="Oslash" format="1">
  <advance width="1102"/>
  <unicode hex="00D8"/>
  <outline>
    <contour>
      <point x="953" y="1131" type="line"/>
      <point x="958" y="1138"/>
      <point x="955" y="1148"/>
      <point x="949" y="1153" type="curve" smooth="yes"/>
      <point x="942" y="1158"/>
      <point x="932" y="1156"/>
      <point x="927" y="1149" type="curve" smooth="yes"/>
      <point x="146" y="72" type="line" smooth="yes"/>
      <point x="141" y="65"/>
      <point x="143" y="55"/>
      <point x="150" y="50" type="curve" smooth="yes"/>
      <point x="156" y="45"/>
      <point x="167" y="47"/>
      <point x="172" y="54" type="curve" smooth="yes"/>
    </contour>
    <component base="O"/>
  </outline>
</glyph>
<glyph name="Thorn" format="1">
  <advance width="1036"/>
  <unicode hex="00DE"/>
  <outline>
    <contour>
      <point x="84" y="-160" type="line"/>
      <point x="84" y="-166"/>
      <point x="90" y="-172"/>
      <point x="96" y="-172" type="curve" smooth="yes"/>
      <point x="102" y="-172"/>
      <point x="108" y="-166"/>
      <point x="108" y="-160" type="curve" smooth="yes"/>
      <point x="108" y="1200" type="line" smooth="yes"/>
      <point x="108" y="1206"/>
      <point x="102" y="1212"/>
      <point x="96" y="1212" type="curve" smooth="yes"/>
      <point x="90" y="1212"/>
      <point x="84" y="1206"/>
      <point x="84" y="1200" type="curve" smooth="yes"/>
    </contour>
    <contour>
      <point x="106" y="1024" type="line"/>
      <point x="100" y="1024"/>
      <point x="94" y="1018"/>
      <point x="94" y="1012" type="curve" smooth="yes"/>
      <point x="94" y="1006"/>
      <point x="100" y="1000"/>
      <point x="106" y="1000" type="curve" smooth="yes"/>
      <point x="520" y="1000" type="line" smooth="yes"/>
      <point x="747" y="1000"/>
      <point x="932" y="815"/>
      <point x="932" y="587" type="curve" smooth="yes"/>
      <point x="932" y="425" type="line" smooth="yes"/>
      <point x="932" y="198"/>
      <point x="747" y="12"/>
      <point x="520" y="12" type="curve" smooth="yes"/>
      <point x="105" y="12" type="line" smooth="yes"/>
      <point x="98" y="12"/>
      <point x="93" y="6"/>
      <point x="93" y="0" type="curve" smooth="yes"/>
      <point x="93" y="-6"/>
      <point x="98" y="-12"/>
      <point x="105" y="-12" type="curve" smooth="yes"/>
      <point x="520" y="-12" type="line" smooth="yes"/>
      <point x="761" y="-12"/>
      <point x="956" y="184"/>
      <point x="956" y="425" type="curve" smooth="yes"/>
      <point x="956" y="587" type="line" smooth="yes"/>
      <point x="956" y="827"/>
      <point x="761" y="1024"/>
      <point x="520" y="1024" type="curve" smooth="yes"/>
    </contour>
  </outline>
</glyph>
<glyph name="ae" format="1">
  <advance width="1583"/>
  <unicode hex="00E6"/>
  <outline>
    <contour>
      <point x="775" y="23" type="line"/>
      <point x="775" y="14"/>
      <point x="782" y="7"/>
      <point x="791" y="7" type="curve" smooth="yes"/>
      <point x="800" y="7"/>
      <point x="807" y="14"/>
      <point x="807" y="23" type="curve" smooth="yes"/>
      <point x="807" y="695" type="line" smooth="yes"/>
      <point x="749" y="828"/>
      <point x="619" y="922"/>
      <point x="467" y="922" type="curve" smooth="yes"/>
      <point x="254" y="922"/>
      <point x="80" y="748"/>
      <point x="80" y="535" type="curve" smooth="yes"/>
      <point x="80" y="371" type="line" smooth="yes"/>
      <point x="80" y="158"/>
      <point x="254" y="-16"/>
      <point x="467" y="-16" type="curve" smooth="yes"/>
      <point x="620" y="-16"/>
      <point x="751" y="77"/>
      <point x="805" y="195" type="curve" smooth="yes"/>
      <point x="809" y="204"/>
      <point x="805" y="213"/>
      <point x="797" y="215" type="curve" smooth="yes"/>
      <point x="789" y="219"/>
      <point x="780" y="215"/>
      <point x="777" y="207" type="curve" smooth="yes"/>
      <point x="725" y="99"/>
      <point x="605" y="16"/>
      <point x="467" y="16" type="curve" smooth="yes"/>
      <point x="272" y="16"/>
      <point x="112" y="176"/>
      <point x="112" y="371" type="curve" smooth="yes"/>
      <point x="112" y="535" type="line" smooth="yes"/>
      <point x="112" y="730"/>
      <point x="272" y="890"/>
      <point x="467" y="890" type="curve" smooth="yes"/>
      <point x="605" y="890"/>
      <point x="724" y="807"/>
      <point x="775" y="691" type="curve" smooth="yes"/>
    </contour>
    <contour>
      <point x="777" y="701" type="curve" smooth="yes"/>
      <point x="774" y="693"/>
      <point x="778" y="684"/>
      <point x="785" y="681" type="curve" smooth="yes"/>
      <point x="794" y="678"/>
      <point x="803" y="682"/>
      <point x="806" y="689" type="curve" smooth="yes"/>
      <point x="857" y="807"/>
      <point x="977" y="890"/>
      <point x="1116" y="890" type="curve" smooth="yes"/>
      <point x="1311" y="890"/>
      <point x="1471" y="730"/>
      <point x="1471" y="535" type="curve" smooth="yes"/>
      <point x="1471" y="455" type="line"/>
      <point x="1487" y="471" type="line"/>
      <point x="802" y="471" type="line" smooth="yes"/>
      <point x="793" y="471"/>
      <point x="786" y="464"/>
      <point x="786" y="455" type="curve" smooth="yes"/>
      <point x="786" y="446"/>
      <point x="793" y="439"/>
      <point x="802" y="439" type="curve" smooth="yes"/>
      <point x="1487" y="439" type="line" smooth="yes"/>
      <point x="1496" y="439"/>
      <point x="1503" y="446"/>
      <point x="1503" y="455" type="curve" smooth="yes"/>
      <point x="1503" y="535" type="line" smooth="yes"/>
      <point x="1503" y="748"/>
      <point x="1329" y="922"/>
      <point x="1116" y="922" type="curve" smooth="yes"/>
      <point x="963" y="922"/>
      <point x="832" y="830"/>
    </contour>
    <contour>
      <point x="1412" y="152" type="curve" smooth="yes"/>
      <point x="1416" y="159"/>
      <point x="1414" y="168"/>
      <point x="1407" y="172" type="curve" smooth="yes"/>
      <point x="1400" y="176"/>
      <point x="1391" y="174"/>
      <point x="1387" y="167" type="curve" smooth="yes"/>
      <point x="1334" y="78"/>
      <point x="1232" y="16"/>
      <point x="1116" y="16" type="curve" smooth="yes"/>
      <point x="977" y="16"/>
      <point x="857" y="99"/>
      <point x="806" y="217" type="curve" smooth="yes"/>
      <point x="803" y="224"/>
      <point x="794" y="228"/>
      <point x="785" y="225" type="curve" smooth="yes"/>
      <point x="778" y="222"/>
      <point x="774" y="213"/>
      <point x="777" y="205" type="curve" smooth="yes"/>
      <point x="832" y="76"/>
      <point x="963" y="-16"/>
      <point x="1116" y="-16" type="curve" smooth="yes"/>
      <point x="1243" y="-16"/>
      <point x="1355" y="53"/>
    </contour>
  </outline>
</glyph>
<glyph name="eth" format="1">
  <advance width="935"/>
  <unicode hex="00F0"/>
  <outline>
    <contour>
      <point x="734" y="1026" type="line"/>
      <point x="726" y="1022"/>
      <point x="724" y="1011"/>
      <point x="728" y="1004" type="curve" smooth="yes"/>
      <point x="732" y="996"/>
      <point x="743" y="994"/>
      <point x="750" y="998" type="curve" smooth="yes"/>
      <point x="900" y="1085" type="line" smooth="yes"/>
      <point x="908" y="1089"/>
      <point x="910" y="1100"/>
      <point x="906" y="1107" type="curve" smooth="yes"/>
      <point x="902" y="1115"/>
      <point x="891" y="1117"/>
      <point x="884" y="1113" type="curve" smooth="yes"/>
    </contour>
    <component base="partialdiff"/>
    <component base="partialdiff"/>
  </outline>
</glyph>
<glyph name="divide" format="1">
  <advance width="840"/>
  <unicode hex="00F7"/>
  <outline>
    <contour>
      <point x="419" y="255" type="curve" smooth="yes"/>
      <point x="431" y="255"/>
      <point x="443" y="267"/>
      <point x="443" y="279" type="curve" smooth="yes"/>
      <point x="443" y="291"/>
      <point x="431" y="303"/>
      <point x="419" y="303" type="curve" smooth="yes"/>
      <point x="407" y="303"/>
      <point x="395" y="291"/>
      <point x="395" y="279" type="curve" smooth="yes"/>
      <point x="395" y="267"/>
      <point x="407" y="255"/>
    </contour>
    <contour>
      <point x="419" y="549" type="curve" smooth="yes"/>
      <point x="431" y="549"/>
      <point x="443" y="561"/>
      <point x="443" y="573" type="curve" smooth="yes"/>
      <point x="443" y="585"/>
      <point x="431" y="597"/>
      <point x="419" y="597" type="curve" smooth="yes"/>
      <point x="407" y="597"/>
      <point x="395" y="585"/>
      <point x="395" y="573" type="curve" smooth="yes"/>
      <point x="395" y="561"/>
      <point x="407" y="549"/>
    </contour>
    <contour>
      <point x="657" y="410" type="line"/>
      <point x="666" y="410"/>
      <point x="673" y="417"/>
      <point x="673" y="426" type="curve" smooth="yes"/>
      <point x="673" y="435"/>
      <point x="666" y="442"/>
      <point x="657" y="442" type="curve" smooth="yes"/>
      <point x="183" y="442" type="line" smooth="yes"/>
      <point x="174" y="442"/>
      <point x="167" y="435"/>
      <point x="167" y="426" type="curve" smooth="yes"/>
      <point x="167" y="417"/>
      <point x="174" y="410"/>
      <point x="183" y="410" type="curve" smooth="yes"/>
    </contour>
  </outline>
</glyph>
<glyph name="oslash" format="1">
  <advance width="934"/>
  <unicode hex="00F8"/>
  <outline>
    <contour>
      <point x="778" y="887" type="line"/>
      <point x="783" y="894"/>
      <point x="781" y="904"/>
      <point x="774" y="908" type="curve" smooth="yes"/>
      <point x="767" y="913"/>
      <point x="757" y="911"/>
      <point x="752" y="904" type="curve" smooth="yes"/>
      <point x="142" y="18" type="line" smooth="yes"/>
      <point x="137" y="11"/>
      <point x="139" y="1"/>
      <point x="147" y="-3" type="curve" smooth="yes"/>
      <point x="153" y="-8"/>
      <point x="164" y="-6"/>
      <point x="168" y="1" type="curve" smooth="yes"/>
    </contour>
    <component base="o"/>
  </outline>
</glyph>
<glyph name="dotlessi" format="1">
  <advance width="312.0"/>
  <unicode hex="0131"/>
  <outline>
    <contour>
      <point x="156" y="906" type="curve" smooth="yes"/>
      <point x="148" y="906"/>
      <point x="140" y="898"/>
      <point x="140" y="890" type="curve" smooth="yes"/>
      <point x="140" y="16" type="line" smooth="yes"/>
      <point x="140" y="8"/>
      <point x="148" y="0"/>
      <point x="156" y="0" type="curve" smooth="yes"/>
      <point x="164" y="0"/>
      <point x="172" y="8"/>
      <point x="172" y="16" type="curve" smooth="yes"/>
      <point x="172" y="890" type="line" smooth="yes"/>
      <point x="172" y="898"/>
      <point x="164" y="906"/>
    </contour>
  </outline>
</glyph>
<glyph name="lslash" format="1">
  <advance width="305"/>
  <unicode hex="0142"/>
  <outline>
    <contour>
      <point x="236" y="884" type="line"/>
      <point x="243" y="888"/>
      <point x="246" y="899"/>
      <point x="242" y="906" type="curve" smooth="yes"/>
      <point x="238" y="912"/>
      <point x="227" y="915"/>
      <point x="220" y="911" type="curve" smooth="yes"/>
      <point x="70" y="824" type="line" smooth="yes"/>
      <point x="63" y="820"/>
      <point x="60" y="809"/>
      <point x="64" y="803" type="curve" smooth="yes"/>
      <point x="68" y="796"/>
      <point x="79" y="793"/>
      <point x="86" y="797" type="curve" smooth="yes"/>
    </contour>
    <component base="l" xOffset="-3"/>
  </outline>
</glyph>
<glyph name="OE" format="1">
  <advance width="1449"/>
  <unicode hex="0152"/>
  <outline>
    <contour>
      <point x="1357" y="6" type="line"/>
      <point x="1362" y="6"/>
      <point x="1367" y="11"/>
      <point x="1367" y="16" type="curve" smooth="yes"/>
      <point x="1367" y="21"/>
      <point x="1362" y="26"/>
      <point x="1357" y="26" type="curve" smooth="yes"/>
      <point x="853" y="26" type="line"/>
      <point x="863" y="16" type="line"/>
      <point x="863" y="1184" type="line"/>
      <point x="853" y="1174" type="line"/>
      <point x="1357" y="1174" type="line" smooth="yes"/>
      <point x="1362" y="1174"/>
      <point x="1367" y="1179"/>
      <point x="1367" y="1184" type="curve" smooth="yes"/>
      <point x="1367" y="1189"/>
      <point x="1362" y="1194"/>
      <point x="1357" y="1194" type="curve" smooth="yes"/>
      <point x="853" y="1194" type="line" smooth="yes"/>
      <point x="847" y="1194"/>
      <point x="843" y="1190"/>
      <point x="843" y="1184" type="curve" smooth="yes"/>
      <point x="843" y="16" type="line" smooth="yes"/>
      <point x="843" y="10"/>
      <point x="847" y="6"/>
      <point x="853" y="6" type="curve" smooth="yes"/>
    </contour>
    <contour>
      <point x="858" y="557" type="line"/>
      <point x="853" y="557"/>
      <point x="848" y="552"/>
      <point x="848" y="547" type="curve" smooth="yes"/>
      <point x="848" y="542"/>
      <point x="853" y="537"/>
      <point x="858" y="537" type="curve" smooth="yes"/>
      <point x="1102" y="537" type="line" smooth="yes"/>
      <point x="1107" y="537"/>
      <point x="1112" y="542"/>
      <point x="1112" y="547" type="curve" smooth="yes"/>
      <point x="1112" y="552"/>
      <point x="1107" y="557"/>
      <point x="1102" y="557" type="curve" smooth="yes"/>
    </contour>
    <contour>
      <point x="839" y="1062" type="curve" smooth="yes"/>
      <point x="842" y="1058"/>
      <point x="848" y="1057"/>
      <point x="852" y="1060" type="curve" smooth="yes"/>
      <point x="856" y="1063"/>
      <point x="856" y="1070"/>
      <point x="853" y="1074" type="curve" smooth="yes"/>
      <point x="780" y="1156"/>
      <point x="670" y="1210"/>
      <point x="547" y="1210" type="curve" smooth="yes"/>
      <point x="290" y="1210"/>
      <point x="82" y="1001"/>
      <point x="82" y="746" type="curve" smooth="yes"/>
      <point x="82" y="444" type="line" smooth="yes"/>
      <point x="82" y="188"/>
      <point x="290" y="-21"/>
      <point x="547" y="-21" type="curve" smooth="yes"/>
      <point x="670" y="-21"/>
      <point x="781" y="33"/>
      <point x="855" y="116" type="curve" smooth="yes"/>
      <point x="858" y="120"/>
      <point x="857" y="127"/>
      <point x="853" y="130" type="curve" smooth="yes"/>
      <point x="850" y="133"/>
      <point x="843" y="132"/>
      <point x="840" y="128" type="curve" smooth="yes"/>
      <point x="770" y="50"/>
      <point x="664" y="-1"/>
      <point x="547" y="-1" type="curve" smooth="yes"/>
      <point x="302" y="-1"/>
      <point x="102" y="200"/>
      <point x="102" y="444" type="curve" smooth="yes"/>
      <point x="102" y="746" type="line" smooth="yes"/>
      <point x="102" y="990"/>
      <point x="302" y="1190"/>
      <point x="547" y="1190" type="curve" smooth="yes"/>
      <point x="664" y="1190"/>
      <point x="769" y="1139"/>
    </contour>
  </outline>
</glyph>
<glyph name="oe" format="1">
  <advance width="1549"/>
  <unicode hex="0153"/>
  <outline>
    <contour>
      <point x="1378" y="152" type="curve" smooth="yes"/>
      <point x="1382" y="159"/>
      <point x="1379" y="168"/>
      <point x="1372" y="172" type="curve" smooth="yes"/>
      <point x="1365" y="176"/>
      <point x="1356" y="174"/>
      <point x="1352" y="167" type="curve" smooth="yes"/>
      <point x="1300" y="78"/>
      <point x="1198" y="16"/>
      <point x="1082" y="16" type="curve" smooth="yes"/>
      <point x="953" y="16"/>
      <point x="840" y="90"/>
      <point x="787" y="195" type="curve" smooth="yes"/>
      <point x="787" y="711" type="line" smooth="yes"/>
      <point x="840" y="816"/>
      <point x="953" y="890"/>
      <point x="1082" y="890" type="curve" smooth="yes"/>
      <point x="1277" y="890"/>
      <point x="1437" y="730"/>
      <point x="1437" y="535" type="curve" smooth="yes"/>
      <point x="1437" y="455" type="line"/>
      <point x="1453" y="471" type="line"/>
      <point x="780" y="471" type="line" smooth="yes"/>
      <point x="771" y="471"/>
      <point x="764" y="464"/>
      <point x="764" y="455" type="curve" smooth="yes"/>
      <point x="764" y="446"/>
      <point x="771" y="439"/>
      <point x="780" y="439" type="curve" smooth="yes"/>
      <point x="1453" y="439" type="line" smooth="yes"/>
      <point x="1462" y="439"/>
      <point x="1469" y="446"/>
      <point x="1469" y="455" type="curve" smooth="yes"/>
      <point x="1469" y="535" type="line" smooth="yes"/>
      <point x="1469" y="748"/>
      <point x="1295" y="922"/>
      <point x="1082" y="922" type="curve" smooth="yes"/>
      <point x="939" y="922"/>
      <point x="813" y="839"/>
      <point x="755" y="720" type="curve" smooth="yes"/>
      <point x="755" y="186" type="line" smooth="yes"/>
      <point x="813" y="67"/>
      <point x="939" y="-16"/>
      <point x="1082" y="-16" type="curve" smooth="yes"/>
      <point x="1209" y="-16"/>
      <point x="1321" y="53"/>
    </contour>
    <contour>
      <point x="758" y="717" type="curve" smooth="yes"/>
      <point x="761" y="710"/>
      <point x="770" y="707"/>
      <point x="778" y="711" type="curve" smooth="yes"/>
      <point x="785" y="714"/>
      <point x="788" y="723"/>
      <point x="784" y="731" type="curve" smooth="yes"/>
      <point x="727" y="843"/>
      <point x="606" y="922"/>
      <point x="467" y="922" type="curve" smooth="yes"/>
      <point x="254" y="922"/>
      <point x="80" y="748"/>
      <point x="80" y="535" type="curve" smooth="yes"/>
      <point x="80" y="371" type="line" smooth="yes"/>
      <point x="80" y="158"/>
      <point x="254" y="-16"/>
      <point x="467" y="-16" type="curve" smooth="yes"/>
      <point x="606" y="-16"/>
      <point x="727" y="63"/>
      <point x="784" y="175" type="curve" smooth="yes"/>
      <point x="788" y="183"/>
      <point x="785" y="192"/>
      <point x="778" y="195" type="curve" smooth="yes"/>
      <point x="770" y="199"/>
      <point x="761" y="196"/>
      <point x="758" y="189" type="curve" smooth="yes"/>
      <point x="704" y="87"/>
      <point x="594" y="16"/>
      <point x="467" y="16" type="curve" smooth="yes"/>
      <point x="272" y="16"/>
      <point x="112" y="176"/>
      <point x="112" y="371" type="curve" smooth="yes"/>
      <point x="112" y="535" type="line" smooth="yes"/>
      <point x="112" y="730"/>
      <point x="272" y="890"/>
      <point x="467" y="890" type="curve" smooth="yes"/>
      <point x="594" y="890"/>
      <point x="704" y="819"/>
    </contour>
  </outline>
</glyph>
<glyph name="longs" format="1">
  <advance width="483"/>
  <unicode hex="017F"/>
  <outline>
    <contour>
      <point x="467" y="1216" type="curve" smooth="yes"/>
      <point x="254" y="1216"/>
      <point x="80" y="1042"/>
      <point x="80" y="829" type="curve"/>
      <point x="80" y="16" type="line" smooth="yes"/>
      <point x="80" y="7"/>
      <point x="87" y="0"/>
      <point x="96" y="0" type="curve" smooth="yes"/>
      <point x="105" y="0"/>
      <point x="112" y="7"/>
      <point x="112" y="16" type="curve"/>
      <point x="112" y="829" type="line"/>
      <point x="112" y="1024"/>
      <point x="272" y="1184"/>
      <point x="467" y="1184" type="curve" smooth="yes"/>
      <point x="476" y="1184"/>
      <point x="483" y="1191"/>
      <point x="483" y="1200" type="curve" smooth="yes"/>
      <point x="483" y="1209"/>
      <point x="476" y="1216"/>
    </contour>
  </outline>
</glyph>
<glyph name="florin" format="1">
  <advance width="523"/>
  <unicode hex="0192"/>
  <outline>
    <contour>
      <point x="467" y="1184" type="curve" smooth="yes"/>
      <point x="476" y="1184"/>
      <point x="483" y="1191"/>
      <point x="483" y="1200" type="curve" smooth="yes"/>
      <point x="483" y="1209"/>
      <point x="476" y="1216"/>
      <point x="467" y="1216" type="curve" smooth="yes"/>
      <point x="254" y="1216"/>
      <point x="80" y="1042"/>
      <point x="80" y="829" type="curve" smooth="yes"/>
      <point x="80" y="16" type="line" smooth="yes"/>
      <point x="80" y="-72"/>
      <point x="8" y="-145"/>
      <point x="-81" y="-145" type="curve" smooth="yes"/>
      <point x="-90" y="-145"/>
      <point x="-97" y="-152"/>
      <point x="-97" y="-161" type="curve" smooth="yes"/>
      <point x="-97" y="-170"/>
      <point x="-90" y="-177"/>
      <point x="-81" y="-177" type="curve" smooth="yes"/>
      <point x="26" y="-177"/>
      <point x="112" y="-90"/>
      <point x="112" y="16" type="curve" smooth="yes"/>
      <point x="112" y="829" type="line" smooth="yes"/>
      <point x="112" y="1024"/>
      <point x="272" y="1184"/>
    </contour>
    <contour>
      <point x="303" y="526" type="line"/>
      <point x="312" y="526"/>
      <point x="319" y="533"/>
      <point x="319" y="542" type="curve" smooth="yes"/>
      <point x="319" y="551"/>
      <point x="312" y="558"/>
      <point x="303" y="558" type="curve" smooth="yes"/>
      <point x="103" y="558" type="line" smooth="yes"/>
      <point x="94" y="558"/>
      <point x="87" y="551"/>
      <point x="87" y="542" type="curve" smooth="yes"/>
      <point x="87" y="533"/>
      <point x="94" y="526"/>
      <point x="103" y="526" type="curve" smooth="yes"/>
    </contour>
  </outline>
</glyph>
<glyph name="Delta" format="1">
  <advance width="843.0"/>
  <unicode hex="0394"/>
  <outline>
    <contour>
      <point x="819" y="32" type="line"/>
      <point x="804" y="9" type="line"/>
      <point x="443" y="859" type="line"/>
      <point x="473" y="859" type="line"/>
      <point x="111" y="9" type="line"/>
      <point x="96" y="32" type="line"/>
    </contour>
    <contour>
      <point x="819" y="0" type="curve" smooth="yes"/>
      <point x="96" y="0" type="line" smooth="yes"/>
      <point x="82" y="0"/>
      <point x="76" y="10"/>
      <point x="81" y="23" type="curve" smooth="yes"/>
      <point x="443" y="873" type="line" smooth="yes"/>
      <point x="451" y="892"/>
      <point x="465" y="892"/>
      <point x="473" y="873" type="curve" smooth="yes"/>
      <point x="834" y="23" type="line" smooth="yes"/>
      <point x="839" y="10"/>
      <point x="833" y="0"/>
    </contour>
  </outline>
</glyph>
<glyph name="Omega" format="1">
  <advance width="1102"/>
  <unicode hex="03A9"/>
  <outline>
    <contour>
      <point x="966" y="-76" type="line"/>
      <point x="975" y="-76"/>
      <point x="982" y="-69"/>
      <point x="982" y="-60" type="curve" smooth="yes"/>
      <point x="982" y="-51"/>
      <point x="975" y="-44"/>
      <point x="966" y="-44" type="curve" smooth="yes"/>
      <point x="704" y="-44" type="line"/>
      <point x="720" y="-60" type="line"/>
      <point x="720" y="87" type="line"/>
      <point x="707" y="71" type="line"/>
      <point x="888" y="124"/>
      <point x="1022" y="293"/>
      <point x="1022" y="492" type="curve" smooth="yes"/>
      <point x="1022" y="751" type="line" smooth="yes"/>
      <point x="1022" y="1010"/>
      <point x="810" y="1221"/>
      <point x="551" y="1221" type="curve" smooth="yes"/>
      <point x="291" y="1221"/>
      <point x="80" y="1010"/>
      <point x="80" y="751" type="curve" smooth="yes"/>
      <point x="80" y="492" type="line" smooth="yes"/>
      <point x="80" y="293"/>
      <point x="214" y="124"/>
      <point x="396" y="71" type="curve"/>
      <point x="383" y="87" type="line"/>
      <point x="383" y="-60" type="line"/>
      <point x="399" y="-44" type="line"/>
      <point x="136" y="-44" type="line" smooth="yes"/>
      <point x="127" y="-44"/>
      <point x="120" y="-51"/>
      <point x="120" y="-60" type="curve" smooth="yes"/>
      <point x="120" y="-69"/>
      <point x="127" y="-76"/>
      <point x="136" y="-76" type="curve" smooth="yes"/>
      <point x="399" y="-76" type="line" smooth="yes"/>
      <point x="408" y="-76"/>
      <point x="415" y="-69"/>
      <point x="415" y="-60" type="curve" smooth="yes"/>
      <point x="415" y="87" type="line" smooth="yes"/>
      <point x="415" y="94"/>
      <point x="409" y="101"/>
      <point x="402" y="102" type="curve" smooth="yes"/>
      <point x="235" y="152"/>
      <point x="112" y="308"/>
      <point x="112" y="492" type="curve" smooth="yes"/>
      <point x="112" y="751" type="line" smooth="yes"/>
      <point x="112" y="992"/>
      <point x="309" y="1189"/>
      <point x="551" y="1189" type="curve" smooth="yes"/>
      <point x="792" y="1189"/>
      <point x="990" y="992"/>
      <point x="990" y="751" type="curve" smooth="yes"/>
      <point x="990" y="492" type="line" smooth="yes"/>
      <point x="990" y="308"/>
      <point x="867" y="152"/>
      <point x="700" y="102" type="curve" smooth="yes"/>
      <point x="693" y="101"/>
      <point x="688" y="94"/>
      <point x="688" y="87" type="curve" smooth="yes"/>
      <point x="688" y="-60" type="line" smooth="yes"/>
      <point x="688" y="-69"/>
      <point x="695" y="-76"/>
      <point x="704" y="-76" type="curve" smooth="yes"/>
    </contour>
  </outline>
</glyph>
<glyph name="emdash" format="1">
  <advance width="2000.0"/>
  <unicode hex="2014"/>
  <outline>
    <contour>
      <point x="96" y="459" type="line"/>
      <point x="87" y="459"/>
      <point x="80" y="452"/>
      <point x="80" y="443" type="curve" smooth="yes"/>
      <point x="80" y="434"/>
      <point x="87" y="427"/>
      <point x="96" y="427" type="curve" smooth="yes"/>
      <point x="1904" y="427" type="line" smooth="yes"/>
      <point x="1913" y="427"/>
      <point x="1920" y="434"/>
      <point x="1920" y="443" type="curve" smooth="yes"/>
      <point x="1920" y="452"/>
      <point x="1913" y="459"/>
      <point x="1904" y="459" type="curve" smooth="yes"/>
    </contour>
  </outline>
</glyph>
<glyph name="quotesinglbase" format="1">
  <advance width="184.0"/>
  <unicode hex="201A"/>
  <outline>
    <contour>
      <point x="91" y="-103" type="curve"/>
      <point x="126" y="-31" type="line" smooth="yes"/>
      <point x="131" y="-21"/>
      <point x="128" y="-6"/>
      <point x="114" y="0" type="curve" smooth="yes"/>
      <point x="102" y="6"/>
      <point x="84" y="-3"/>
      <point x="80" y="-15" type="curve" smooth="yes"/>
      <point x="61" y="-91" type="line" smooth="yes"/>
      <point x="59" y="-100"/>
      <point x="63" y="-108"/>
      <point x="70" y="-110" type="curve" smooth="yes"/>
      <point x="78" y="-114"/>
      <point x="87" y="-111"/>
    </contour>
  </outline>
</glyph>
<glyph name="dagger" format="1">
  <advance width="612.0"/>
  <unicode hex="2020"/>
  <outline>
    <contour>
      <point x="317" y="16" type="line"/>
      <point x="317" y="7"/>
      <point x="324" y="0"/>
      <point x="333" y="0" type="curve" smooth="yes"/>
      <point x="342" y="0"/>
      <point x="349" y="7"/>
      <point x="349" y="16" type="curve" smooth="yes"/>
      <point x="349" y="1184" type="line" smooth="yes"/>
      <point x="349" y="1193"/>
      <point x="342" y="1200"/>
      <point x="333" y="1200" type="curve" smooth="yes"/>
      <point x="324" y="1200"/>
      <point x="317" y="1193"/>
      <point x="317" y="1184" type="curve" smooth="yes"/>
    </contour>
    <contour>
      <point x="96" y="963" type="line"/>
      <point x="87" y="963"/>
      <point x="80" y="956"/>
      <point x="80" y="947" type="curve" smooth="yes"/>
      <point x="80" y="938"/>
      <point x="87" y="931"/>
      <point x="96" y="931" type="curve" smooth="yes"/>
      <point x="569" y="931" type="line" smooth="yes"/>
      <point x="578" y="931"/>
      <point x="585" y="938"/>
      <point x="585" y="947" type="curve" smooth="yes"/>
      <point x="585" y="956"/>
      <point x="578" y="963"/>
      <point x="569" y="963" type="curve" smooth="yes"/>
    </contour>
  </outline>
</glyph>
<glyph name="guilsinglleft" format="1">
  <advance width="284.0"/>
  <unicode hex="2039"/>
  <outline>
    <contour>
      <point x="197" y="300" type="line"/>
      <point x="203" y="294"/>
      <point x="213" y="294"/>
      <point x="219" y="300" type="curve" smooth="yes"/>
      <point x="225" y="306"/>
      <point x="225" y="316"/>
      <point x="219" y="322" type="curve" smooth="yes"/>
      <point x="85" y="454" type="line"/>
      <point x="85" y="432" type="line"/>
      <point x="219" y="564" type="line" smooth="yes"/>
      <point x="225" y="570"/>
      <point x="225" y="580"/>
      <point x="219" y="586" type="curve" smooth="yes"/>
      <point x="213" y="592"/>
      <point x="203" y="592"/>
      <point x="197" y="586" type="curve" smooth="yes"/>
      <point x="63" y="454" type="line" smooth="yes"/>
      <point x="56" y="448"/>
      <point x="56" y="438"/>
      <point x="63" y="432" type="curve" smooth="yes"/>
    </contour>
  </outline>
</glyph>
<glyph name="Euro" format="1">
  <advance width="1036"/>
  <unicode hex="20AC"/>
  <outline>
    <contour>
      <point x="939" y="999" type="curve" smooth="yes"/>
      <point x="943" y="992"/>
      <point x="952" y="989"/>
      <point x="960" y="993" type="curve" smooth="yes"/>
      <point x="967" y="997"/>
      <point x="970" y="1006"/>
      <point x="966" y="1013" type="curve" smooth="yes"/>
      <point x="894" y="1133"/>
      <point x="756" y="1216"/>
      <point x="600" y="1216" type="curve" smooth="yes"/>
      <point x="341" y="1216"/>
      <point x="129" y="1005"/>
      <point x="129" y="746" type="curve" smooth="yes"/>
      <point x="129" y="444" type="line" smooth="yes"/>
      <point x="129" y="185"/>
      <point x="341" y="-27"/>
      <point x="600" y="-27" type="curve" smooth="yes"/>
      <point x="757" y="-27"/>
      <point x="894" y="57"/>
      <point x="966" y="177" type="curve" smooth="yes"/>
      <point x="970" y="184"/>
      <point x="967" y="193"/>
      <point x="960" y="197" type="curve" smooth="yes"/>
      <point x="953" y="201"/>
      <point x="944" y="198"/>
      <point x="940" y="191" type="curve" smooth="yes"/>
      <point x="872" y="81"/>
      <point x="744" y="5"/>
      <point x="600" y="5" type="curve" smooth="yes"/>
      <point x="359" y="5"/>
      <point x="161" y="203"/>
      <point x="161" y="444" type="curve" smooth="yes"/>
      <point x="161" y="746" type="line" smooth="yes"/>
      <point x="161" y="987"/>
      <point x="359" y="1184"/>
      <point x="600" y="1184" type="curve" smooth="yes"/>
      <point x="744" y="1184"/>
      <point x="871" y="1109"/>
    </contour>
    <contour>
      <point x="471" y="654" type="line"/>
      <point x="480" y="654"/>
      <point x="487" y="661"/>
      <point x="487" y="670" type="curve" smooth="yes"/>
      <point x="487" y="679"/>
      <point x="480" y="686"/>
      <point x="471" y="686" type="curve" smooth="yes"/>
      <point x="76" y="686" type="line" smooth="yes"/>
      <point x="67" y="686"/>
      <point x="60" y="679"/>
      <point x="60" y="670" type="curve" smooth="yes"/>
      <point x="60" y="661"/>
      <point x="67" y="654"/>
      <point x="76" y="654" type="curve" smooth="yes"/>
    </contour>
    <contour>
      <point x="471" y="574" type="line"/>
      <point x="480" y="574"/>
      <point x="487" y="581"/>
      <point x="487" y="590" type="curve" smooth="yes"/>
      <point x="487" y="599"/>
      <point x="480" y="606"/>
      <point x="471" y="606" type="curve" smooth="yes"/>
      <point x="76" y="606" type="line" smooth="yes"/>
      <point x="67" y="606"/>
      <point x="60" y="599"/>
      <point x="60" y="590" type="curve" smooth="yes"/>
      <point x="60" y="581"/>
      <point x="67" y="574"/>
      <point x="76" y="574" type="curve" smooth="yes"/>
    </contour>
  </outline>
</glyph>
<glyph name="partialdiff" format="1">
  <advance width="935"/>
  <unicode hex="2202"/>
  <outline>
    <contour>
      <point x="823" y="540" type="curve" smooth="yes"/>
      <point x="823" y="531"/>
      <point x="830" y="524"/>
      <point x="839" y="524" type="curve" smooth="yes"/>
      <point x="848" y="524"/>
      <point x="855" y="531"/>
      <point x="855" y="540" type="curve" smooth="yes"/>
      <point x="855" y="753"/>
      <point x="681" y="927"/>
      <point x="467" y="927" type="curve" smooth="yes"/>
      <point x="254" y="927"/>
      <point x="80" y="753"/>
      <point x="80" y="540" type="curve" smooth="yes"/>
      <point x="80" y="366" type="line" smooth="yes"/>
      <point x="80" y="153"/>
      <point x="254" y="-21"/>
      <point x="467" y="-21" type="curve" smooth="yes"/>
      <point x="681" y="-21"/>
      <point x="855" y="153"/>
      <point x="855" y="366" type="curve" smooth="yes"/>
      <point x="855" y="915" type="line" smooth="yes"/>
      <point x="855" y="1043"/>
      <point x="785" y="1155"/>
      <point x="687" y="1211" type="curve" smooth="yes"/>
      <point x="680" y="1215"/>
      <point x="671" y="1213"/>
      <point x="667" y="1206" type="curve" smooth="yes"/>
      <point x="663" y="1199"/>
      <point x="666" y="1190"/>
      <point x="673" y="1186" type="curve" smooth="yes"/>
      <point x="761" y="1133"/>
      <point x="823" y="1031"/>
      <point x="823" y="915" type="curve" smooth="yes"/>
      <point x="823" y="366" type="line" smooth="yes"/>
      <point x="823" y="171"/>
      <point x="663" y="11"/>
      <point x="467" y="11" type="curve" smooth="yes"/>
      <point x="272" y="11"/>
      <point x="112" y="171"/>
      <point x="112" y="366" type="curve" smooth="yes"/>
      <point x="112" y="540" type="line" smooth="yes"/>
      <point x="112" y="735"/>
      <point x="272" y="895"/>
      <point x="467" y="895" type="curve" smooth="yes"/>
      <point x="663" y="895"/>
      <point x="823" y="735"/>
    </contour>
  </outline>
</glyph>
<glyph name="product" format="1">
  <advance width="1160"/>
  <unicode hex="220F"/>
  <outline>
    <contour>
      <point x="1064" y="-16" type="curve" smooth="yes"/>
      <point x="1073" y="-16"/>
      <point x="1080" y="-9"/>
      <point x="1080" y="0" type="curve" smooth="yes"/>
      <point x="1080" y="9"/>
      <point x="1073" y="16"/>
      <point x="1064" y="16" type="curve" smooth="yes"/>
      <point x="1005" y="16"/>
      <point x="956" y="65"/>
      <point x="956" y="124" type="curve" smooth="yes"/>
      <point x="956" y="1178" type="line" smooth="yes"/>
      <point x="956" y="1187"/>
      <point x="949" y="1194"/>
      <point x="940" y="1194" type="curve" smooth="yes"/>
      <point x="931" y="1194"/>
      <point x="924" y="1187"/>
      <point x="924" y="1178" type="curve" smooth="yes"/>
      <point x="924" y="124" type="line" smooth="yes"/>
      <point x="924" y="47"/>
      <point x="987" y="-16"/>
    </contour>
    <contour>
      <point x="192" y="16" type="line"/>
      <point x="192" y="7"/>
      <point x="199" y="0"/>
      <point x="208" y="0" type="curve" smooth="yes"/>
      <point x="217" y="0"/>
      <point x="224" y="7"/>
      <point x="224" y="16" type="curve" smooth="yes"/>
      <point x="224" y="1178" type="line" smooth="yes"/>
      <point x="224" y="1187"/>
      <point x="217" y="1194"/>
      <point x="208" y="1194" type="curve" smooth="yes"/>
      <point x="199" y="1194"/>
      <point x="192" y="1187"/>
      <point x="192" y="1178" type="curve" smooth="yes"/>
    </contour>
    <contour>
      <point x="1064" y="1168" type="line"/>
      <point x="1073" y="1168"/>
      <point x="1080" y="1175"/>
      <point x="1080" y="1184" type="curve" smooth="yes"/>
      <point x="1080" y="1193"/>
      <point x="1073" y="1200"/>
      <point x="1064" y="1200" type="curve" smooth="yes"/>
      <point x="96" y="1200" type="line" smooth="yes"/>
      <point x="87" y="1200"/>
      <point x="80" y="1193"/>
      <point x="80" y="1184" type="curve" smooth="yes"/>
      <point x="80" y="1175"/>
      <point x="87" y="1168"/>
      <point x="96" y="1168" type="curve" smooth="yes"/>
    </contour>
  </outline>
</glyph>
<glyph name="summation" format="1">
  <advance width="1096"/>
  <unicode hex="2211"/>
  <outline>
    <contour>
      <point x="1000" y="1168" type="line"/>
      <point x="1009" y="1168"/>
      <point x="1016" y="1175"/>
      <point x="1016" y="1184" type="curve" smooth="yes"/>
      <point x="1016" y="1193"/>
      <point x="1009" y="1200"/>
      <point x="1000" y="1200" type="curve" smooth="yes"/>
      <point x="96" y="1200" type="line" smooth="yes"/>
      <point x="77" y="1200"/>
      <point x="71" y="1188"/>
      <point x="84" y="1174" type="curve" smooth="yes"/>
      <point x="591" y="589" type="line"/>
      <point x="591" y="609" type="line"/>
      <point x="84" y="26" type="line" smooth="yes"/>
      <point x="71" y="12"/>
      <point x="77" y="0"/>
      <point x="96" y="0" type="curve" smooth="yes"/>
      <point x="1000" y="0" type="line" smooth="yes"/>
      <point x="1009" y="0"/>
      <point x="1016" y="7"/>
      <point x="1016" y="16" type="curve" smooth="yes"/>
      <point x="1016" y="25"/>
      <point x="1009" y="32"/>
      <point x="1000" y="32" type="curve" smooth="yes"/>
      <point x="96" y="32" type="line"/>
      <point x="108" y="6" type="line"/>
      <point x="615" y="589" type="line" smooth="yes"/>
      <point x="620" y="595"/>
      <point x="620" y="604"/>
      <point x="615" y="609" type="curve" smooth="yes"/>
      <point x="108" y="1194" type="line"/>
      <point x="96" y="1168" type="line"/>
    </contour>
  </outline>
</glyph>
<glyph name="minus" format="1">
  <advance width="839"/>
  <unicode hex="2212"/>
  <outline>
    <contour>
      <point x="656" y="410" type="line"/>
      <point x="665" y="410"/>
      <point x="672" y="417"/>
      <point x="672" y="426" type="curve" smooth="yes"/>
      <point x="672" y="435"/>
      <point x="665" y="442"/>
      <point x="656" y="442" type="curve"/>
      <point x="183" y="442" type="line" smooth="yes"/>
      <point x="174" y="442"/>
      <point x="167" y="435"/>
      <point x="167" y="426" type="curve" smooth="yes"/>
      <point x="167" y="417"/>
      <point x="174" y="410"/>
      <point x="183" y="410" type="curve"/>
    </contour>
  </outline>
</glyph>
<glyph name="radical" format="1">
  <advance width="1210"/>
  <unicode hex="221A"/>
  <outline>
    <contour>
      <point x="111" y="912" type="line"/>
      <point x="108" y="920"/>
      <point x="99" y="924"/>
      <point x="90" y="921" type="curve" smooth="yes"/>
      <point x="82" y="918"/>
      <point x="78" y="909"/>
      <point x="81" y="900" type="curve" smooth="yes"/>
      <point x="436" y="-23" type="line" smooth="yes"/>
      <point x="444" y="-47"/>
      <point x="458" y="-47"/>
      <point x="465" y="-23" type="curve" smooth="yes"/>
      <point x="920" y="1178" type="line"/>
      <point x="905" y="1168" type="line"/>
      <point x="1194" y="1168" type="line" smooth="yes"/>
      <point x="1203" y="1168"/>
      <point x="1210" y="1175"/>
      <point x="1210" y="1184" type="curve" smooth="yes"/>
      <point x="1210" y="1193"/>
      <point x="1203" y="1200"/>
      <point x="1194" y="1200" type="curve" smooth="yes"/>
      <point x="905" y="1200" type="line" smooth="yes"/>
      <point x="899" y="1200"/>
      <point x="893" y="1195"/>
      <point x="891" y="1190" type="curve" smooth="yes"/>
      <point x="436" y="-12" type="line"/>
      <point x="465" y="-12" type="line"/>
    </contour>
  </outline>
</glyph>
<glyph name="lessequal" format="1">
  <advance width="840.0"/>
  <unicode hex="2264"/>
  <outline>
    <contour>
      <point x="648" y="71" type="line"/>
      <point x="655" y="66"/>
      <point x="665" y="68"/>
      <point x="670" y="75" type="curve" smooth="yes"/>
      <point x="675" y="82"/>
      <point x="674" y="92"/>
      <point x="667" y="97" type="curve" smooth="yes"/>
      <point x="195" y="439" type="line"/>
      <point x="195" y="413" type="line"/>
      <point x="667" y="753" type="line" smooth="yes"/>
      <point x="674" y="758"/>
      <point x="675" y="768"/>
      <point x="670" y="775" type="curve" smooth="yes"/>
      <point x="665" y="782"/>
      <point x="655" y="784"/>
      <point x="648" y="779" type="curve" smooth="yes"/>
      <point x="176" y="439" type="line" smooth="yes"/>
      <point x="166" y="432"/>
      <point x="166" y="420"/>
      <point x="176" y="413" type="curve" smooth="yes"/>
    </contour>
    <contour>
      <point x="656" y="-16" type="line"/>
      <point x="665" y="-16"/>
      <point x="672" y="-9"/>
      <point x="672" y="0" type="curve" smooth="yes"/>
      <point x="672" y="9"/>
      <point x="665" y="16"/>
      <point x="656" y="16" type="curve" smooth="yes"/>
      <point x="183" y="16" type="line" smooth="yes"/>
      <point x="174" y="16"/>
      <point x="167" y="9"/>
      <point x="167" y="0" type="curve" smooth="yes"/>
      <point x="167" y="-9"/>
      <point x="174" y="-16"/>
      <point x="183" y="-16" type="curve" smooth="yes"/>
    </contour>
  </outline>
</glyph>
<glyph name="greaterequal" format="1">
  <advance width="840"/>
  <unicode hex="2265"/>
  <outline>
    <contour>
      <point x="192" y="779" type="line"/>
      <point x="185" y="784"/>
      <point x="175" y="782"/>
      <point x="170" y="775" type="curve" smooth="yes"/>
      <point x="165" y="768"/>
      <point x="166" y="758"/>
      <point x="173" y="753" type="curve" smooth="yes"/>
      <point x="645" y="413" type="line"/>
      <point x="645" y="439" type="line"/>
      <point x="173" y="97" type="line" smooth="yes"/>
      <point x="166" y="92"/>
      <point x="165" y="82"/>
      <point x="170" y="75" type="curve" smooth="yes"/>
      <point x="175" y="68"/>
      <point x="185" y="66"/>
      <point x="192" y="71" type="curve" smooth="yes"/>
      <point x="664" y="413" type="line" smooth="yes"/>
      <point x="674" y="420"/>
      <point x="674" y="432"/>
      <point x="664" y="439" type="curve" smooth="yes"/>
    </contour>
    <contour>
      <point x="657" y="-16" type="line"/>
      <point x="666" y="-16"/>
      <point x="673" y="-9"/>
      <point x="673" y="0" type="curve" smooth="yes"/>
      <point x="673" y="9"/>
      <point x="666" y="16"/>
      <point x="657" y="16" type="curve" smooth="yes"/>
      <point x="184" y="16" type="line" smooth="yes"/>
      <point x="175" y="16"/>
      <point x="168" y="9"/>
      <point x="168" y="0" type="curve" smooth="yes"/>
      <point x="168" y="-9"/>
      <point x="175" y="-16"/>
      <point x="184" y="-16" type="curve" smooth="yes"/>
    </contour>
  </outline>
</glyph>
<glyph name="a" format="1">
  <advance width="934.666666667"/>
  <outline>
    <contour>
      <point x="822.666666667" y="22.6666666667" type="line"/>
      <point x="822.666666667" y="13.6666666667"/>
      <point x="829.666666667" y="6.66666666667"/>
      <point x="838.666666667" y="6.66666666667" type="curve" smooth="yes"/>
      <point x="847.666666667" y="6.66666666667"/>
      <point x="854.666666667" y="13.6666666667"/>
      <point x="854.666666667" y="22.6666666667" type="curve" smooth="yes"/>
      <point x="854.666666667" y="534.666666667" type="line" smooth="yes"/>
      <point x="854.666666667" y="748.0"/>
      <point x="680.666666667" y="922.0"/>
      <point x="467.333333333" y="922.0" type="curve" smooth="yes"/>
      <point x="254.0" y="922.0"/>
      <point x="80.0" y="748.0"/>
      <point x="80.0" y="534.666666667" type="curve" smooth="yes"/>
      <point x="80.0" y="371.333333333" type="line" smooth="yes"/>
      <point x="80.0" y="158.0"/>
      <point x="254.0" y="-16.0"/>
      <point x="467.333333333" y="-16.0" type="curve" smooth="yes"/>
      <point x="681.0" y="-16.0"/>
      <point x="854.666666667" y="158.666666667"/>
      <point x="854.666666667" y="362.666666667" type="curve" smooth="yes"/>
      <point x="854.666666667" y="371.666666667"/>
      <point x="847.666666667" y="378.666666667"/>
      <point x="838.666666667" y="378.666666667" type="curve" smooth="yes"/>
      <point x="829.666666667" y="378.666666667"/>
      <point x="822.666666667" y="371.666666667"/>
      <point x="822.666666667" y="362.666666667" type="curve" smooth="yes"/>
      <point x="822.666666667" y="175.333333333"/>
      <point x="662.333333333" y="16.0"/>
      <point x="467.333333333" y="16.0" type="curve" smooth="yes"/>
      <point x="272.0" y="16.0"/>
      <point x="112.0" y="176.0"/>
      <point x="112.0" y="371.333333333" type="curve" smooth="yes"/>
      <point x="112.0" y="534.666666667" type="line" smooth="yes"/>
      <point x="112.0" y="730.0"/>
      <point x="272.0" y="890.0"/>
      <point x="467.333333333" y="890.0" type="curve" smooth="yes"/>
      <point x="662.666666667" y="890.0"/>
      <point x="822.666666667" y="730.0"/>
      <point x="822.666666667" y="534.666666667" type="curve" smooth="yes"/>
    </contour>
  </outline>
</glyph>
<glyph name="four.sup" format="1">
  <advance width="517"/>
  <outline>
    <contour>
      <point x="417" y="718" type="line"/>
      <point x="426" y="718"/>
      <point x="433" y="725"/>
      <point x="433" y="734" type="curve" smooth="yes"/>
      <point x="433" y="743"/>
      <point x="426" y="750"/>
      <point x="417" y="750" type="curve" smooth="yes"/>
      <point x="97" y="750" type="line"/>
      <point x="112" y="729" type="line"/>
      <point x="274" y="1179" type="line"/>
      <point x="259" y="1168" type="line"/>
      <point x="421" y="1168" type="line"/>
      <point x="405" y="1184" type="line"/>
      <point x="405" y="600" type="line" smooth="yes"/>
      <point x="405" y="591"/>
      <point x="412" y="584"/>
      <point x="421" y="584" type="curve" smooth="yes"/>
      <point x="430" y="584"/>
      <point x="437" y="591"/>
      <point x="437" y="600" type="curve" smooth="yes"/>
      <point x="437" y="1184" type="line" smooth="yes"/>
      <point x="437" y="1193"/>
      <point x="430" y="1200"/>
      <point x="421" y="1200" type="curve" smooth="yes"/>
      <point x="259" y="1200" type="line" smooth="yes"/>
      <point x="252" y="1200"/>
      <point x="246" y="1195"/>
      <point x="243" y="1189" type="curve" smooth="yes"/>
      <point x="81" y="739" type="line" smooth="yes"/>
      <point x="77" y="728"/>
      <point x="84" y="718"/>
      <point x="97" y="718" type="curve" smooth="yes"/>
    </contour>
  </outline>
</glyph>
<glyph name="one.oldstyle" format="1">
  <advance width="840.0"/>
  <outline>
    <contour>
      <point x="405" y="16" type="line"/>
      <point x="405" y="7"/>
      <point x="412" y="0"/>
      <point x="421" y="0" type="curve" smooth="yes"/>
      <point x="430" y="0"/>
      <point x="437" y="7"/>
      <point x="437" y="16" type="curve" smooth="yes"/>
      <point x="437" y="912" type="line" smooth="yes"/>
      <point x="437" y="933"/>
      <point x="425" y="938"/>
      <point x="410" y="923" type="curve" smooth="yes"/>
      <point x="85" y="597" type="line" smooth="yes"/>
      <point x="79" y="591"/>
      <point x="79" y="581"/>
      <point x="85" y="575" type="curve" smooth="yes"/>
      <point x="91" y="569"/>
      <point x="101" y="569"/>
      <point x="107" y="575" type="curve" smooth="yes"/>
      <point x="432" y="901" type="line"/>
      <point x="405" y="912" type="line"/>
    </contour>
    <contour>
      <point x="745" y="0" type="line"/>
      <point x="754" y="0"/>
      <point x="761" y="7"/>
      <point x="761" y="16" type="curve" smooth="yes"/>
      <point x="761" y="25"/>
      <point x="754" y="32"/>
      <point x="745" y="32" type="curve" smooth="yes"/>
      <point x="97" y="32" type="line" smooth="yes"/>
      <point x="88" y="32"/>
      <point x="81" y="25"/>
      <point x="81" y="16" type="curve" smooth="yes"/>
      <point x="81" y="7"/>
      <point x="88" y="0"/>
      <point x="97" y="0" type="curve" smooth="yes"/>
    </contour>
  </outline>
</glyph>
<glyph name="six.sup" format="1">
  <advance width="523"/>
  <outline>
    <contour>
      <point x="411" y="1051" type="curve" smooth="yes"/>
      <point x="411" y="1042"/>
      <point x="418" y="1035"/>
      <point x="427" y="1035" type="curve" smooth="yes"/>
      <point x="436" y="1035"/>
      <point x="443" y="1042"/>
      <point x="443" y="1051" type="curve" smooth="yes"/>
      <point x="443" y="1151"/>
      <point x="361" y="1232"/>
      <point x="261" y="1232" type="curve" smooth="yes"/>
      <point x="162" y="1232"/>
      <point x="80" y="1151"/>
      <point x="80" y="1051" type="curve" smooth="yes"/>
      <point x="80" y="765" type="line" smooth="yes"/>
      <point x="80" y="665"/>
      <point x="162" y="584"/>
      <point x="261" y="584" type="curve" smooth="yes"/>
      <point x="361" y="584"/>
      <point x="443" y="665"/>
      <point x="443" y="765" type="curve" smooth="yes"/>
      <point x="443" y="843" type="line" smooth="yes"/>
      <point x="443" y="943"/>
      <point x="361" y="1024"/>
      <point x="261" y="1024" type="curve" smooth="yes"/>
      <point x="167" y="1024"/>
      <point x="89" y="951"/>
      <point x="81" y="858" type="curve" smooth="yes"/>
      <point x="80" y="849"/>
      <point x="87" y="841"/>
      <point x="95" y="841" type="curve" smooth="yes"/>
      <point x="104" y="840"/>
      <point x="112" y="847"/>
      <point x="113" y="855" type="curve" smooth="yes"/>
      <point x="119" y="932"/>
      <point x="184" y="992"/>
      <point x="261" y="992" type="curve" smooth="yes"/>
      <point x="343" y="992"/>
      <point x="411" y="925"/>
      <point x="411" y="843" type="curve" smooth="yes"/>
      <point x="411" y="765" type="line" smooth="yes"/>
      <point x="411" y="683"/>
      <point x="343" y="616"/>
      <point x="261" y="616" type="curve" smooth="yes"/>
      <point x="180" y="616"/>
      <point x="112" y="683"/>
      <point x="112" y="765" type="curve" smooth="yes"/>
      <point x="112" y="1051" type="line" smooth="yes"/>
      <point x="112" y="1133"/>
      <point x="180" y="1200"/>
      <point x="261" y="1200" type="curve" smooth="yes"/>
      <point x="343" y="1200"/>
      <point x="411" y="1133"/>
    </contour>
  </outline>
</glyph>
<glyph name="zero.sup" format="1">
  <advance width="523"/>
  <outline>
    <contour>
      <point x="443" y="1051" type="line"/>
      <point x="443" y="1151"/>
      <point x="361" y="1232"/>
      <point x="261" y="1232" type="curve" smooth="yes"/>
      <point x="162" y="1232"/>
      <point x="80" y="1151"/>
      <point x="80" y="1051" type="curve" smooth="yes"/>
      <point x="80" y="765" type="line" smooth="yes"/>
      <point x="80" y="665"/>
      <point x="162" y="584"/>
      <point x="261" y="584" type="curve" smooth="yes"/>
      <point x="361" y="584"/>
      <point x="443" y="665"/>
      <point x="443" y="765" type="curve" smooth="yes"/>
    </contour>
    <contour>
      <point x="411" y="1051" type="curve" smooth="yes"/>
      <point x="411" y="765" type="line" smooth="yes"/>
      <point x="411" y="683"/>
      <point x="343" y="616"/>
      <point x="261" y="616" type="curve" smooth="yes"/>
      <point x="180" y="616"/>
      <point x="112" y="683"/>
      <point x="112" y="765" type="curve" smooth="yes"/>
      <point x="112" y="1051" type="line" smooth="yes"/>
      <point x="112" y="1133"/>
      <point x="180" y="1200"/>
      <point x="261" y="1200" type="curve" smooth="yes"/>
      <point x="343" y="1200"/>
      <point x="411" y="1133"/>
    </contour>
    <contour>
      <point x="88" y="786" type="line"/>
      <point x="81" y="780"/>
      <point x="80" y="770"/>
      <point x="85" y="764" type="curve" smooth="yes"/>
      <point x="91" y="758"/>
      <point x="101" y="757"/>
      <point x="107" y="762" type="curve" smooth="yes"/>
      <point x="435" y="1029" type="line" smooth="yes"/>
      <point x="442" y="1035"/>
      <point x="443" y="1045"/>
      <point x="438" y="1051" type="curve" smooth="yes"/>
      <point x="433" y="1057"/>
      <point x="423" y="1058"/>
      <point x="417" y="1053" type="curve" smooth="yes"/>
    </contour>
  </outline>
</glyph>
